<?xml version="1.0" encoding="utf-8"?>
<!-- Generator: Adobe Illustrator 16.0.0, SVG Export Plug-In . SVG Version: 6.00 Build 0)  -->
<!DOCTYPE svg PUBLIC "-//W3C//DTD SVG 1.1//EN" "http://www.w3.org/Graphics/SVG/1.1/DTD/svg11.dtd">
<svg version="1.1" id="Layer_1" xmlns="http://www.w3.org/2000/svg" xmlns:xlink="http://www.w3.org/1999/xlink" x="0px" y="0px"
	 width="32px" height="32px" viewBox="0 0 32 32" enable-background="new 0 0 32 32" xml:space="preserve">
<g>
	<path fill="#00FF9C" d="M18.865,27.893c-4.361-0.746-3.932-1.867-3.932-2.612v-1.353c1.294-1.227,2.133-3.171,2.133-5.368v-0.746
		v-2.837c0-3.883-2.808-5.376-5.333-5.376S6.4,11.093,6.4,14.976v2.837v0.746c0,2.216,0.856,4.176,2.169,5.4v1.321
		c0,0.746,0.396,1.867-3.965,2.612C0.702,28.562,0,30.933,0,32c1.15,0,22.65,0,23.467,0C23.467,30.933,22.765,28.562,18.865,27.893z
		"/>
	<path fill="#00FF9C" d="M11.737,0v7.467c3.325,0,6.879,2.016,7.396,6.4h2.2v3.722l4.054-3.722H32V0H11.737z M18.356,7.688
		c-0.202,0.197-0.475,0.314-0.756,0.314c-0.277,0-0.554-0.118-0.752-0.314c-0.202-0.198-0.314-0.475-0.314-0.757
		c0-0.278,0.113-0.55,0.314-0.752c0.394-0.395,1.104-0.4,1.509,0c0.198,0.202,0.31,0.474,0.31,0.752
		C18.667,7.213,18.554,7.491,18.356,7.688z M22.623,7.688c-0.202,0.197-0.475,0.31-0.756,0.31c-0.277,0-0.554-0.113-0.752-0.31
		C20.913,7.485,20.8,7.213,20.8,6.931c0-0.278,0.113-0.555,0.315-0.752c0.4-0.4,1.108-0.395,1.508,0
		c0.198,0.197,0.31,0.474,0.31,0.752C22.933,7.213,22.821,7.485,22.623,7.688z M26.89,7.688c-0.202,0.197-0.475,0.31-0.756,0.31
		c-0.277,0-0.554-0.113-0.752-0.31c-0.198-0.198-0.315-0.475-0.315-0.757c0-0.278,0.117-0.555,0.315-0.752
		c0.394-0.395,1.108-0.4,1.508,0C27.087,6.376,27.2,6.653,27.2,6.931C27.2,7.213,27.087,7.485,26.89,7.688z"/>
</g>
</svg>
