<?xml version="1.0" encoding="utf-8"?>
<!-- Generator: Adobe Illustrator 16.0.0, SVG Export Plug-In . SVG Version: 6.00 Build 0)  -->
<!DOCTYPE svg PUBLIC "-//W3C//DTD SVG 1.1//EN" "http://www.w3.org/Graphics/SVG/1.1/DTD/svg11.dtd">
<svg version="1.1" id="Layer_1" xmlns="http://www.w3.org/2000/svg" xmlns:xlink="http://www.w3.org/1999/xlink" x="0px" y="0px"
	 width="32px" height="32px" viewBox="0 0 32 32" enable-background="new 0 0 32 32" xml:space="preserve">
<g>
	<polygon fill="#9B98F6" points="20.267,1.067 20.267,7.467 26.667,7.467 	"/>
	<path fill="#9B98F6" d="M18.133,9.6V0H4.267v32h23.467V9.6H18.133z M13.603,21.7c0.388,0.441,0.342,1.117-0.101,1.504
		c-0.203,0.177-0.453,0.263-0.701,0.263c-0.298,0-0.594-0.123-0.804-0.365l-4.348-4.975l4.349-4.962
		c0.386-0.444,1.061-0.487,1.505-0.1c0.442,0.39,0.488,1.062,0.099,1.506l-3.118,3.559L13.603,21.7z M20.003,23.102
		c-0.21,0.242-0.506,0.365-0.804,0.365c-0.248,0-0.498-0.085-0.701-0.263c-0.443-0.387-0.489-1.062-0.101-1.504l3.119-3.571
		l-3.118-3.559c-0.389-0.444-0.344-1.117,0.099-1.506c0.442-0.387,1.117-0.344,1.505,0.1l4.349,4.962L20.003,23.102z"/>
</g>
</svg>
