<?xml version="1.0" encoding="utf-8"?>
<!-- Generator: Adobe Illustrator 16.0.0, SVG Export Plug-In . SVG Version: 6.00 Build 0)  -->
<!DOCTYPE svg PUBLIC "-//W3C//DTD SVG 1.1//EN" "http://www.w3.org/Graphics/SVG/1.1/DTD/svg11.dtd">
<svg version="1.1" id="Layer_1" xmlns="http://www.w3.org/2000/svg" xmlns:xlink="http://www.w3.org/1999/xlink" x="0px" y="0px"
	 width="32px" height="32px" viewBox="0 0 32 32" enable-background="new 0 0 32 32" xml:space="preserve">
<g>
	<path fill="#00FF9C" d="M16,0C7.178,0,0,7.178,0,16s7.178,16,16,16s16-7.178,16-16S24.822,0,16,0z M29.152,16
		c0,7.168-5.832,13-13,13C8.983,29,3.151,23.168,3.151,16S8.983,3,16.152,3C23.32,3,29.152,8.832,29.152,16z"/>
	<path fill="#00FF9C" d="M16,5.75C10.348,5.75,5.75,10.349,5.75,16c0,5.652,4.598,10.25,10.25,10.25S26.25,21.652,26.25,16
		C26.25,10.349,21.652,5.75,16,5.75z M16,22.75c-3.722,0-6.75-3.027-6.75-6.75c0-3.722,3.028-6.75,6.75-6.75
		c3.723,0,6.75,3.028,6.75,6.75C22.75,19.723,19.723,22.75,16,22.75z"/>
	<path fill="#00FF9C" d="M16,12c-2.205,0-4,1.795-4,4c0,2.206,1.795,4,4,4c2.207,0,4-1.794,4-4C20,13.795,18.207,12,16,12z"/>
</g>
</svg>
