<?xml version="1.0" encoding="utf-8"?>
<!-- Generator: Adobe Illustrator 16.0.0, SVG Export Plug-In . SVG Version: 6.00 Build 0)  -->
<!DOCTYPE svg PUBLIC "-//W3C//DTD SVG 1.1//EN" "http://www.w3.org/Graphics/SVG/1.1/DTD/svg11.dtd">
<svg version="1.1" id="Layer_1" xmlns="http://www.w3.org/2000/svg" xmlns:xlink="http://www.w3.org/1999/xlink" x="0px" y="0px"
	 width="32px" height="32px" viewBox="0 0 32 32" enable-background="new 0 0 32 32" xml:space="preserve">
<path fill-rule="evenodd" clip-rule="evenodd" fill="#F8F5FD" d="M15.999,0C7.164,0,0,7.345,0,16.406
	c0,7.247,4.584,13.396,10.942,15.565c0.8,0.15,1.092-0.356,1.092-0.791c0-0.389-0.014-1.42-0.021-2.79
	c-4.451,0.992-5.39-2.199-5.39-2.199c-0.728-1.896-1.777-2.4-1.777-2.4c-1.453-1.018,0.11-0.997,0.11-0.997
	c1.606,0.116,2.451,1.69,2.451,1.69c1.428,2.507,3.745,1.783,4.657,1.363c0.145-1.061,0.559-1.783,1.016-2.193
	c-3.553-0.414-7.288-1.821-7.288-8.108c0-1.791,0.624-3.255,1.647-4.402C7.274,10.73,6.725,9.062,7.595,6.804
	c0,0,1.344-0.441,4.4,1.682c1.276-0.364,2.645-0.546,4.006-0.552c1.359,0.006,2.728,0.188,4.006,0.552
	c3.054-2.123,4.396-1.682,4.396-1.682c0.873,2.259,0.324,3.927,0.159,4.342c1.025,1.147,1.645,2.611,1.645,4.402
	c0,6.303-3.741,7.689-7.306,8.095c0.575,0.506,1.086,1.508,1.086,3.038c0,2.193-0.02,3.962-0.02,4.5c0,0.439,0.288,0.949,1.1,0.789
	C27.42,29.796,32,23.651,32,16.406C32,7.345,24.836,0,15.999,0z"/>
</svg>
