<?xml version="1.0" encoding="utf-8"?>
<!-- Generator: Adobe Illustrator 16.0.0, SVG Export Plug-In . SVG Version: 6.00 Build 0)  -->
<!DOCTYPE svg PUBLIC "-//W3C//DTD SVG 1.1//EN" "http://www.w3.org/Graphics/SVG/1.1/DTD/svg11.dtd">
<svg version="1.1" id="Layer_1" xmlns="http://www.w3.org/2000/svg" xmlns:xlink="http://www.w3.org/1999/xlink" x="0px" y="0px"
	 width="32px" height="32px" viewBox="0 0 32 32" enable-background="new 0 0 32 32" xml:space="preserve">
<g>
	<polygon fill="#00FF9C" points="25.33,29.155 25.33,20.582 28.175,20.582 28.175,32 2.494,32 2.494,20.582 5.339,20.582 
		5.339,29.155 	"/>
	<path fill="#00FF9C" d="M8.48,19.769l13.968,2.919l0.591-2.808L9.072,16.961L8.48,19.769z M10.328,13.118l12.933,6.023l1.183-2.586
		l-12.933-6.06L10.328,13.118z M13.912,6.762l10.975,9.127l1.811-2.18L15.723,4.582L13.912,6.762z M21.007,0l-2.291,1.7
		l8.499,11.455l2.291-1.7L21.007,0z M8.185,26.272h14.264v-2.845H8.185V26.272z"/>
</g>
</svg>
