<?xml version="1.0" encoding="utf-8"?>
<!-- Generator: Adobe Illustrator 16.0.0, SVG Export Plug-In . SVG Version: 6.00 Build 0)  -->
<!DOCTYPE svg PUBLIC "-//W3C//DTD SVG 1.1//EN" "http://www.w3.org/Graphics/SVG/1.1/DTD/svg11.dtd">
<svg version="1.1" id="Layer_1" xmlns="http://www.w3.org/2000/svg" xmlns:xlink="http://www.w3.org/1999/xlink" x="0px" y="0px"
	 width="32px" height="32px" viewBox="0 0 32 32" enable-background="new 0 0 32 32" xml:space="preserve">
<path fill="#55ACEE" d="M32,6.076c-1.177,0.522-2.442,0.875-3.771,1.034c1.355-0.812,2.396-2.099,2.886-3.632
	c-1.268,0.752-2.673,1.299-4.169,1.593c-1.197-1.276-2.904-2.073-4.792-2.073c-3.625,0-6.565,2.939-6.565,6.565
	c0,0.515,0.058,1.016,0.17,1.496C10.303,10.785,5.466,8.171,2.228,4.199c-0.565,0.97-0.889,2.097-0.889,3.3
	c0,2.278,1.159,4.287,2.92,5.465c-1.076-0.034-2.088-0.33-2.974-0.821c0,0.027,0,0.055,0,0.083c0,3.181,2.263,5.834,5.267,6.438
	c-0.551,0.15-1.131,0.23-1.73,0.23c-0.423,0-0.834-0.041-1.235-0.118c0.835,2.608,3.26,4.506,6.133,4.56
	c-2.247,1.761-5.078,2.81-8.154,2.81c-0.53,0-1.052-0.031-1.566-0.091c2.905,1.863,6.356,2.949,10.064,2.949
	c12.076,0,18.679-10.003,18.679-18.679c0-0.285-0.006-0.568-0.019-0.849C30.007,8.549,31.12,7.393,32,6.076z"/>
</svg>
