<?xml version="1.0" encoding="utf-8"?>
<!-- Generator: Adobe Illustrator 16.0.0, SVG Export Plug-In . SVG Version: 6.00 Build 0)  -->
<!DOCTYPE svg PUBLIC "-//W3C//DTD SVG 1.1//EN" "http://www.w3.org/Graphics/SVG/1.1/DTD/svg11.dtd">
<svg version="1.1" id="Layer_1" xmlns="http://www.w3.org/2000/svg" xmlns:xlink="http://www.w3.org/1999/xlink" x="0px" y="0px"
	 width="193.609px" height="193.609px" viewBox="0 0 193.609 193.609" enable-background="new 0 0 193.609 193.609"
	 xml:space="preserve">
<rect fill="none" width="193.609" height="193.609"/>
<g>
	<path fill="#5B506B" d="M96.804,175.62c-43.529,0-78.814-35.287-78.814-78.816c0-43.527,35.285-78.814,78.814-78.814
		c43.531,0,78.816,35.287,78.816,78.814C175.62,140.333,140.335,175.62,96.804,175.62z"/>
	<polygon fill="#5B506B" points="67.682,185.258 93.066,156.973 79.876,150.23 	"/>
	<polygon fill="#5B506B" points="125.928,185.258 101.263,156.973 113.733,150.23 	"/>
	<path fill="#40384C" d="M41.087,102.329l7.639-18.977l1.121,5.761c0.303,1.562,0.214,3.174-0.26,4.692l-4.162,13.332l8.696-12.63
		l0.417,4.431c0.167,1.778-0.165,3.568-0.959,5.168l-1.365,2.749l7.515,16.134l-1.363,2.473l-18.918-19.854L41.087,102.329z"/>
	<path fill="#2E2837" d="M33.369,101.309c-0.423,2.247-0.03,4.572,1.108,6.555l25.937,45.179L43.961,174.54l23.721,10.718
		l18.724-37.322c1.547-3.083,1.311-6.762-0.618-9.622L59.277,98.996l-0.862,4.431c-0.736,3.784-0.281,7.702,1.303,11.216
		l7.508,16.652l-26.139-28.969l-0.094-16.365c-0.009-1.55-0.393-3.074-1.12-4.443l-2.05-3.864L33.369,101.309z"/>
	<g>
		<path fill="#40384C" d="M152.522,102.329l-7.639-18.977l-1.12,5.761c-0.304,1.562-0.215,3.174,0.26,4.692l4.161,13.332
			l-8.696-12.63l-0.417,4.431c-0.167,1.778,0.165,3.568,0.959,5.168l1.365,2.749l-7.515,16.134l1.362,2.473l18.92-19.854
			L152.522,102.329z"/>
		<path fill="#2E2837" d="M160.244,101.309c0.423,2.247,0.029,4.572-1.109,6.555l-25.937,45.179l16.453,21.497l-23.721,10.718
			l-18.724-37.322c-1.547-3.083-1.311-6.762,0.618-9.622l26.511-39.318l0.862,4.431c0.736,3.784,0.281,7.702-1.303,11.216
			l-7.508,16.652l26.139-28.969l0.094-16.365c0.009-1.55,0.394-3.074,1.12-4.443l2.05-3.864L160.244,101.309z"/>
	</g>
	<path fill="#8E82A3" d="M60.011,74.208c0-20.322,16.473-36.795,36.797-36.791c20.322-0.004,36.791,16.473,36.793,36.793
		c0,20.324-16.475,36.793-36.793,36.797C76.481,111.003,60.015,94.53,60.011,74.208z"/>
	<g>
		<polygon fill="#5B506B" points="96.412,75.131 76.771,66.78 76.77,55.18 78.77,55.18 78.771,65.458 97.194,73.291 		"/>
	</g>
	<g>
		<polygon fill="#5B506B" points="97.199,75.131 96.417,73.291 114.84,65.458 114.842,55.18 116.842,55.18 116.84,66.78 		"/>
	</g>
	<g>
		<polygon fill="#5B506B" points="78.77,93.244 76.77,93.244 76.771,81.644 96.412,73.293 97.194,75.133 78.771,82.966 		"/>
	</g>
	<g>
		<polygon fill="#5B506B" points="114.842,93.244 114.84,82.966 96.417,75.133 97.199,73.293 116.84,81.644 116.842,93.244 		"/>
	</g>
	<g>
		<rect x="95.806" y="47.294" fill="#5B506B" width="2" height="53.835"/>
	</g>
	<path fill="#00FF9C" stroke="#5B506B" stroke-width="2" stroke-miterlimit="10" d="M96.806,64.249c-5.501,0-9.961,4.46-9.961,9.961
		s4.46,9.961,9.961,9.961s9.96-4.46,9.96-9.961S102.307,64.249,96.806,64.249z"/>
	
		<circle fill="#00FF9C" stroke="#5B506B" stroke-width="2" stroke-linejoin="round" stroke-miterlimit="10" cx="96.805" cy="47.294" r="3.643"/>
	<g>
		<path fill="#00FF9C" d="M96.805,78.852c-2.559,0-4.641-2.083-4.641-4.644c0-2.56,2.082-4.642,4.641-4.642
			c2.56,0,4.643,2.082,4.643,4.642C101.447,76.769,99.364,78.852,96.805,78.852z"/>
		<path fill="#5B506B" d="M96.805,70.566c2.012,0,3.643,1.629,3.643,3.642c0,2.011-1.631,3.644-3.643,3.644
			c-2.011,0-3.641-1.633-3.641-3.644C93.164,72.195,94.794,70.566,96.805,70.566 M96.805,68.566c-3.11,0-5.641,2.531-5.641,5.642
			c0,3.112,2.53,5.644,5.641,5.644c3.111,0,5.643-2.532,5.643-5.644C102.447,71.097,99.916,68.566,96.805,68.566L96.805,68.566z"/>
	</g>
	
		<circle fill="#00FF9C" stroke="#5B506B" stroke-width="2" stroke-linejoin="round" stroke-miterlimit="10" cx="77.77" cy="93.248" r="3.643"/>
	
		<circle fill="#FF466A" stroke="#5B506B" stroke-width="2" stroke-linejoin="round" stroke-miterlimit="10" cx="77.77" cy="55.179" r="3.643"/>
	
		<circle fill="#FF466A" stroke="#5B506B" stroke-width="2" stroke-linejoin="round" stroke-miterlimit="10" cx="115.842" cy="93.244" r="3.643"/>
	
		<circle fill="#9B98F6" stroke="#5B506B" stroke-width="2" stroke-linejoin="round" stroke-miterlimit="10" cx="115.842" cy="55.18" r="3.643"/>
	
		<circle fill="#9B98F6" stroke="#5B506B" stroke-width="2" stroke-linejoin="round" stroke-miterlimit="10" cx="96.808" cy="101.128" r="3.643"/>
</g>
</svg>
