<?xml version="1.0" encoding="utf-8"?>
<!-- Generator: Adobe Illustrator 16.0.0, SVG Export Plug-In . SVG Version: 6.00 Build 0)  -->
<!DOCTYPE svg PUBLIC "-//W3C//DTD SVG 1.1//EN" "http://www.w3.org/Graphics/SVG/1.1/DTD/svg11.dtd">
<svg version="1.1" id="Layer_1" xmlns="http://www.w3.org/2000/svg" xmlns:xlink="http://www.w3.org/1999/xlink" x="0px" y="0px"
	 width="193.609px" height="193.609px" viewBox="0 0 193.609 193.609" enable-background="new 0 0 193.609 193.609"
	 xml:space="preserve">
<rect fill="none" width="193.609" height="193.609"/>
<g>
	<circle fill="#5B506B" cx="96.805" cy="96.805" r="78.815"/>
	<path fill="none" stroke="#1A99D6" stroke-miterlimit="10" d="M132.481,149.555"/>
	<path fill="#40384C" d="M123.388,149.404l25.225-5.985l-3.873-1.351c-2.632-0.917-5.448-1.176-8.203-0.753l-14.359,2.205
		l24.188-12.843l-5.497-0.643c-1.832-0.214-3.688,0.042-5.393,0.743L102.88,144.18l-1.713,10.496h36.355l-3.774-3.068
		c-1.172-0.953-2.604-1.533-4.11-1.663L123.388,149.404z"/>
	<path fill="#40384C" d="M53.743,134.272H85.8l11.207-1.724c3.566-0.549,6.936-1.989,9.797-4.188l5.768-4.432H68.284
		c-5.387,0-10.355,2.905-12.997,7.6L53.743,134.272z"/>
	<path fill="none" stroke="#1A99D6" stroke-miterlimit="10" d="M85.919,156.824"/>
	<polygon fill="#5B506B" points="58.499,178.861 77.445,154.676 62.288,149.555 	"/>
	<path fill="#2E2837" d="M101.376,140.414l19.515-14.12c1.39-1.006,3.023-1.621,4.731-1.78l4.966-0.465l-29.423,30.627
		l-34.043-0.036l-8.625,24.222l-22.149-13.676l19.133-34.002c2.339-4.158,7.388-5.951,11.826-4.202L101.376,140.414z"/>
	<path fill="#00FF9C" d="M136.685,102.23c0.79,2.822,2.938,5.062,5.725,5.969c-2.786,0.906-4.935,3.145-5.725,5.966l-0.186,0.664
		l-0.186-0.664c-0.79-2.821-2.938-5.061-5.725-5.966c2.786-0.907,4.935-3.147,5.725-5.969l0.186-0.662L136.685,102.23z"/>
	<path fill="#00FF9C" d="M57.845,41.638c0.448,1.599,1.666,2.868,3.246,3.38c-1.581,0.515-2.798,1.784-3.246,3.383l-0.106,0.379
		l-0.105-0.378c-0.448-1.6-1.666-2.871-3.246-3.385c1.58-0.512,2.798-1.782,3.246-3.381l0.106-0.38L57.845,41.638z"/>
	<path fill="#00FF9C" d="M142.517,90.176c0.449,1.605,1.672,2.879,3.258,3.393c-1.587,0.516-2.809,1.791-3.258,3.396l-0.106,0.378
		l-0.106-0.38c-0.45-1.605-1.672-2.879-3.258-3.395c1.585-0.514,2.808-1.788,3.258-3.393l0.106-0.38L142.517,90.176z"/>
	<path fill="#00FF9C" d="M53.743,51.091c-1.141,0-2.064,0.925-2.064,2.065c0,1.14,0.924,2.065,2.064,2.065s2.064-0.926,2.064-2.065
		C55.808,52.016,54.884,51.091,53.743,51.091z M53.743,54.094c-0.518,0-0.938-0.42-0.938-0.938s0.42-0.937,0.938-0.937
		s0.938,0.419,0.938,0.937S54.261,54.094,53.743,54.094z"/>
	<path fill="#40384C" d="M130.683,52.714h-8.292V41.122c0-2.28,1.849-4.129,4.129-4.129h0.034c2.28,0,4.129,1.849,4.129,4.129
		V52.714z"/>
	<path fill="#362E43" d="M127.847,37.22c-0.409-0.136-0.839-0.227-1.293-0.227h-0.034c-2.28,0-4.129,1.849-4.129,4.129v11.592h2.619
		V41.122C125.01,39.296,126.203,37.765,127.847,37.22z"/>
	<rect x="67.369" y="45.023" fill="#FAF8FC" width="55.022" height="63.175"/>
	<path fill="#CCBEE0" d="M122.392,45.023H67.369v-3.901c0-2.281,1.849-4.129,4.129-4.129h55.022c-2.28,0-4.129,1.849-4.129,4.129
		V45.023z"/>
	<circle fill="#FF466A" cx="71.187" cy="41.009" r="1.654"/>
	<circle fill="#EFFF00" cx="77.804" cy="41.009" r="1.654"/>
	<circle fill="#00FF9C" cx="84.421" cy="41.009" r="1.654"/>
	<polygon fill="#00E38B" points="102.071,117.825 94.88,113.507 87.688,117.825 87.688,93.272 102.071,93.272 	"/>
	<g>
		<polygon fill="#CCBEE0" points="89.688,90.89 87.688,90.89 87.688,78.839 82.274,73.424 82.274,53.157 84.274,53.157 
			84.274,72.596 89.688,78.011 		"/>
	</g>
	<g>
		<rect x="93.88" y="67.991" fill="#CCBEE0" width="2" height="23.945"/>
	</g>
	<g>
		<polygon fill="#CCBEE0" points="102.071,90.89 100.071,90.89 100.071,72.672 105.487,67.257 105.487,58.81 107.487,58.81 
			107.487,68.085 102.071,73.5 		"/>
	</g>
	
		<circle fill="#FAF8FC" stroke="#CCBEE0" stroke-width="2" stroke-linejoin="round" stroke-miterlimit="10" cx="106.485" cy="58.809" r="3.643"/>
	
		<circle fill="#FAF8FC" stroke="#CCBEE0" stroke-width="2" stroke-linejoin="round" stroke-miterlimit="10" cx="83.274" cy="53.157" r="3.643"/>
	
		<circle fill="#FAF8FC" stroke="#CCBEE0" stroke-width="2" stroke-linejoin="round" stroke-miterlimit="10" cx="94.88" cy="67.991" r="3.643"/>
	<g>
		<path fill="#00E38B" d="M94.88,102.895c-6.044,0-10.961-4.917-10.961-10.961s4.917-10.961,10.961-10.961
			c6.043,0,10.96,4.917,10.96,10.961S100.923,102.895,94.88,102.895z"/>
		<path fill="#FAF8FC" d="M94.88,81.973c5.501,0,9.96,4.46,9.96,9.961s-4.459,9.961-9.96,9.961s-9.961-4.46-9.961-9.961
			S89.379,81.973,94.88,81.973 M94.88,79.973c-6.595,0-11.961,5.366-11.961,11.961s5.366,11.961,11.961,11.961
			c6.595,0,11.96-5.366,11.96-11.961S101.475,79.973,94.88,79.973L94.88,79.973z"/>
	</g>
</g>
</svg>
