<?xml version="1.0" standalone="no"?>
<!DOCTYPE svg PUBLIC "-//W3C//DTD SVG 20010904//EN"
 "http://www.w3.org/TR/2001/REC-SVG-20010904/DTD/svg10.dtd">
<svg version="1.0" xmlns="http://www.w3.org/2000/svg"
 width="700.000000pt" height="700.000000pt" viewBox="0 0 700.000000 700.000000"
 preserveAspectRatio="xMidYMid meet">
<metadata>
Created by potrace 1.11, written by Peter Selinger 2001-2013
</metadata>
<g transform="translate(0.000000,700.000000) scale(0.100000,-0.100000)"
fill="#000000" stroke="none">
<path d="M3308 6975 c-1 -1 -46 -6 -98 -9 -52 -3 -104 -8 -115 -10 -11 -2 -42
-7 -70 -10 -84 -12 -107 -16 -190 -32 -116 -23 -267 -60 -365 -91 -47 -15 -87
-27 -90 -28 -3 -1 -14 -5 -25 -9 -11 -5 -63 -24 -115 -44 -202 -75 -459 -208
-665 -345 -80 -53 -242 -171 -255 -186 -3 -3 -30 -26 -60 -51 -151 -122 -347
-323 -490 -505 -273 -345 -483 -749 -607 -1170 -19 -66 -36 -129 -38 -140 -2
-11 -10 -47 -18 -80 -21 -80 -45 -215 -53 -295 -3 -36 -8 -68 -10 -71 -23 -40
-23 -684 0 -795 2 -11 7 -45 10 -75 18 -165 77 -422 146 -627 60 -182 97 -271
189 -456 206 -418 507 -800 871 -1106 36 -30 67 -57 70 -60 5 -5 75 -57 170
-126 160 -117 423 -263 630 -352 271 -116 626 -215 890 -247 25 -4 59 -8 75
-11 164 -24 650 -24 815 1 14 2 45 7 70 10 197 26 412 76 602 139 186 62 250
88 438 178 841 405 1493 1151 1785 2043 33 99 78 262 89 319 2 11 9 41 14 66
6 25 13 61 16 80 3 19 10 69 16 110 6 41 13 86 15 99 19 115 26 524 13 691
-44 531 -213 1059 -480 1499 -35 57 -67 111 -73 120 -85 140 -302 407 -451
556 -180 179 -424 376 -596 480 -437 265 -834 419 -1258 490 -124 20 -151 24
-208 30 -35 4 -80 9 -100 12 -43 5 -489 13 -494 8z m442 -639 c60 -7 114 -13
175 -22 323 -44 694 -174 998 -350 143 -82 156 -91 326 -221 114 -87 309 -271
393 -369 80 -94 88 -104 145 -181 192 -258 346 -563 436 -863 37 -123 81 -320
92 -410 3 -25 7 -56 10 -70 24 -123 24 -572 0 -701 -2 -9 -6 -40 -10 -69 -4
-29 -9 -62 -11 -74 -3 -12 -9 -46 -15 -76 -51 -268 -169 -581 -312 -830 -27
-47 -55 -94 -61 -105 -25 -45 -139 -205 -203 -285 -93 -117 -307 -329 -431
-428 -269 -215 -554 -371 -862 -475 -100 -34 -206 -65 -241 -72 -9 -2 -59 -12
-110 -24 -176 -38 -360 -55 -579 -55 -136 1 -306 10 -340 19 -8 2 -39 7 -69
10 -30 4 -61 8 -70 10 -9 2 -52 11 -96 20 -287 58 -638 194 -857 332 -21 12
-39 23 -42 23 -5 0 -76 48 -171 115 -367 259 -704 656 -902 1065 -113 233
-207 515 -239 720 -3 19 -7 37 -9 40 -2 3 -7 35 -10 70 -4 36 -8 67 -10 70
-22 36 -22 662 -1 699 2 3 7 33 11 66 18 159 86 419 159 608 149 386 355 699
660 1002 280 278 599 485 972 631 145 57 425 134 542 149 15 2 56 8 92 14 36
6 106 13 155 17 50 4 91 7 92 9 6 4 342 -3 393 -9z"/>
<path d="M1958 5082 c-31 -3 -38 -7 -39 -25 -4 -150 1 -1860 6 -1865 4 -4 146
-7 316 -7 l309 -1 0 411 0 410 1043 -1043 1042 -1042 223 0 222 0 1 30 c0 17
0 428 0 915 0 487 0 900 0 919 l-1 34 -315 -1 -315 0 0 -404 c0 -221 -3 -403
-7 -403 -5 0 -473 466 -1042 1035 -916 916 -1038 1035 -1065 1035 -226 4 -348
4 -378 2z"/>
<path d="M4654 5059 c-71 -27 -137 -88 -171 -157 -37 -75 -40 -191 -6 -263 51
-112 155 -182 278 -185 96 -3 164 23 231 90 195 195 65 525 -211 532 -49 2
-85 -3 -121 -17z"/>
<path d="M2141 2539 c-86 -26 -167 -105 -201 -195 -63 -169 34 -360 210 -410
87 -25 195 -4 272 52 187 138 162 424 -47 532 -56 28 -174 39 -234 21z"/>
</g>
</svg>
