<svg xmlns="http://www.w3.org/2000/svg" viewBox="0 0 2211 492"><path d="m1187 211c4 0 7-3 7-7s-3-7-7-7c-4 0-7 3-7 7s3 7 7 7z" fill="#292431"/><path d="m1187 171c-19 0-34 15-34 34 0 19 15 34 34 34 19 0 34-15 34-34 0-19-15-34-34-34zm0 55c-11 0-20-9-20-20 0-11 9-20 20-20s20 9 20 20c0 11-9 20-20 20z" fill="#292431"/><path d="m1023 293c4 0 7-3 7-7s-3-7-7-7c-4 0-7 3-7 7s3 7 7 7z" fill="#292431"/><path d="m1023 252c-19 0-34 15-34 34 0 19 15 34 34 34 19 0 34-15 34-34 0-19-15-34-34-34zm0 55c-11 0-20-9-20-20 0-11 9-20 20-20s20 9 20 20c0 11-9 20-20 20z" fill="#292431"/><path d="m1139 184v-14h-68v68h68v-14h-55v-41h55z" fill="#292431"/><path d="m1105 211c4 0 7-3 7-7s-3-7-7-7-7 3-7 7 3 7 7 7z" fill="#292431"/><path d="m1044 177c0 4 3 7 7 7s7-3 7-7c0-4-3-7-7-7s-7 3-7 7z" fill="#292431"/><path d="m996 239c4 0 7-3 7-7s-3-7-7-7-7 3-7 7 3 7 7 7z" fill="#292431"/><path d="m1044 198v18l-45-45h-10v41h14v-18l45 45h10v-41h-14z" fill="#292431"/><path d="m1126 259c0 4 3 7 7 7 4 0 7-3 7-7 0-4-3-7-7-7-4 0-7 3-7 7z" fill="#292431"/><path d="m1078 321c4 0 7-3 7-7 0-4-3-7-7-7-4 0-7 3-7 7 0 4 3 7 7 7z" fill="#292431"/><path d="m1126 280l0 18-45-45h-10v41h14l0-18 45 45h10v-41h-14z" fill="#292431"/><path d="m1221 266v-14h-68v68h68v-14h-55v-41h55z" fill="#292431"/><path d="m1187 293c4 0 7-3 7-7s-3-7-7-7c-4 0-7 3-7 7s3 7 7 7z" fill="#292431"/><path d="m744 225v14h68v-68h-68v14h55v41h-55z" fill="#292431"/><path d="m778 211c4 0 7-3 7-7s-3-7-7-7-7 3-7 7 3 7 7 7z" fill="#292431"/><path d="m887 184c4 0 7-3 7-7s-3-7-7-7-7 3-7 7 3 7 7 7z" fill="#292431"/><path d="m832 239c4 0 7-3 7-7s-3-7-7-7-7 3-7 7 3 7 7 7z" fill="#292431"/><path d="m866 184l-18 0 45 45v10h-41v-14l18 0-45-45v-10h41v14z" fill="#292431"/><path d="m941 211c4 0 7-3 7-7s-3-7-7-7-7 3-7 7 3 7 7 7z" fill="#292431"/><path d="m941 171c-19 0-34 15-34 34 0 19 15 34 34 34s34-15 34-34c0-19-15-34-34-34zm0 55c-11 0-20-9-20-20 0-11 9-20 20-20 11 0 20 9 20 20 0 11-9 20-20 20z" fill="#292431"/><path d="m962 252h14v68h-68v-68h14v55h41v-55z" fill="#292431"/><path d="m941 293c4 0 7-3 7-7s-3-7-7-7-7 3-7 7 3 7 7 7z" fill="#292431"/><path d="m860 293c4 0 7-3 7-7s-3-7-7-7-7 3-7 7 3 7 7 7z" fill="#292431"/><path d="m860 252c-19 0-34 15-34 34s15 34 34 34c19 0 34-15 34-34s-15-34-34-34zm0 55c-11 0-20-9-20-20 0-11 9-20 20-20 11 0 20 9 20 20 0 11-9 20-20 20z" fill="#292431"/><path d="m805 321c4 0 7-3 7-7s-3-7-7-7-7 3-7 7 3 7 7 7z" fill="#292431"/><path d="m751 266c4 0 7-3 7-7s-3-7-7-7-7 3-7 7 3 7 7 7z" fill="#292431"/><path d="m798 293l0-18-45 45h-10v-41h14l0 18 45-45h10v41h-14z" fill="#292431"/><path d="m1726 389v14h68v-68h-68v14h55v41h-55z" fill="#292431"/><path d="m1760 375c4 0 7-3 7-7s-3-7-7-7-7 3-7 7 3 7 7 7z" fill="#292431"/><path d="m1869 348c-4 0-7-3-7-7 0-4 3-7 7-7 4 0 7 3 7 7 0 4-3 7-7 7z" fill="#292431"/><path d="m1815 402c4 0 7-3 7-7s-3-7-7-7-7 3-7 7 3 7 7 7z" fill="#292431"/><path d="m1849 348l-18 0 45 45v10h-41v-14l18 0-45-45v-10h41v14z" fill="#292431"/><path d="m1924 375c4 0 7-3 7-7s-3-7-7-7-7 3-7 7 3 7 7 7z" fill="#292431"/><path d="m1924 334c-19 0-34 15-34 34 0 19 15 34 34 34s34-15 34-34c0-19-15-34-34-34zm0 55c-11 0-20-9-20-20 0-11 9-20 20-20s20 9 20 20c0 11-9 20-20 20z" fill="#292431"/><path d="m1944 416h14v68h-68v-68h14v55h41v-55z" fill="#292431"/><path d="m1924 457c4 0 7-3 7-7s-3-7-7-7-7 3-7 7 3 7 7 7z" fill="#292431"/><path d="m1842 457c4 0 7-3 7-7s-3-7-7-7c-4 0-7 3-7 7s3 7 7 7z" fill="#292431"/><path d="m1842 416c-19 0-34 15-34 34s15 34 34 34c19 0 34-15 34-34s-15-34-34-34zm0 55c-11 0-20-9-20-20 0-11 9-20 20-20 11 0 20 9 20 20 0 11-9 20-20 20z" fill="#292431"/><path d="m1787 484c4 0 7-3 7-7s-3-7-7-7c-4 0-7 3-7 7s3 7 7 7z" fill="#292431"/><path d="m1733 430c4 0 7-3 7-7s-3-7-7-7c-4 0-7 3-7 7s3 7 7 7z" fill="#292431"/><path d="m1781 457l0-18-45 45h-10v-41h14v18l45-45h10v41h-14z" fill="#292431"/><path d="m812 20v-14h-68v68h68v-14h-55v-41h55z" fill="#292431"/><path d="m778 48c4 0 7-3 7-7 0-4-3-7-7-7s-7 3-7 7c0 4 3 7 7 7z" fill="#292431"/><path d="m887 75c4 0 7-3 7-7 0-4-3-7-7-7s-7 3-7 7c0 4 3 7 7 7z" fill="#292431"/><path d="m832 20c4 0 7-3 7-7 0-4-3-7-7-7s-7 3-7 7c0 4 3 7 7 7z" fill="#292431"/><path d="m866 61l-18 0 45-45v-10h-41v14l18 0-45 45v10h41v-14z" fill="#292431"/><path d="m941 48c4 0 7-3 7-7s-3-7-7-7-7 3-7 7 3 7 7 7z" fill="#292431"/><path d="m941 7c-19 0-34 15-34 34 0 19 15 34 34 34s34-15 34-34c0-19-15-34-34-34zm0 55c-11 0-20-9-20-20 0-11 9-20 20-20 11 0 20 9 20 20 0 11-9 20-20 20z" fill="#292431"/><path d="m894 102v-14h-68v68h68v-14h-55v-41h55z" fill="#292431"/><path d="m860 130c4 0 7-3 7-7s-3-7-7-7-7 3-7 7 3 7 7 7z" fill="#292431"/><path d="m778 130c4 0 7-3 7-7s-3-7-7-7-7 3-7 7 3 7 7 7z" fill="#292431"/><path d="m778 89c-19 0-34 15-34 34 0 19 15 34 34 34 19 0 34-15 34-34 0-19-15-34-34-34zm0 55c-11 0-20-9-20-20 0-11 9-20 20-20 11 0 20 9 20 20 0 11-9 20-20 20z" fill="#292431"/><path d="m969 102c4 0 7-3 7-7 0-4-3-7-7-7s-7 3-7 7c0 4 3 7 7 7z" fill="#292431"/><path d="m914 157c4 0 7-3 7-7 0-4-3-7-7-7-4 0-7 3-7 7 0 4 3 7 7 7z" fill="#292431"/><path d="m962 116l0 18-45-45h-10v41h14l0-18 45 45h10v-41h-14z" fill="#292431"/><path d="m2040 184v-14h-68v68h68v-14h-55v-41h55z" fill="#292431"/><path d="m2006 211c4 0 7-3 7-7s-3-7-7-7-7 3-7 7 3 7 7 7z" fill="#292431"/><path d="m2115 239c4 0 7-3 7-7s-3-7-7-7-7 3-7 7 3 7 7 7z" fill="#292431"/><path d="m2060 184c4 0 7-3 7-7s-3-7-7-7-7 3-7 7 3 7 7 7z" fill="#292431"/><path d="m2094 225l-18 0 45-45v-10h-41v14l18 0-45 45v10h41v-14z" fill="#292431"/><path d="m2169 211c4 0 7-3 7-7s-3-7-7-7-7 3-7 7 3 7 7 7z" fill="#292431"/><path d="m2169 171c-19 0-34 15-34 34 0 19 15 34 34 34 19 0 34-15 34-34 0-19-15-34-34-34zm0 55c-11 0-20-9-20-20 0-11 9-20 20-20s20 9 20 20c0 11-9 20-20 20z" fill="#292431"/><path d="m2122 266v-14h-68v68h68v-14h-55v-41h55z" fill="#292431"/><path d="m2088 293c4 0 7-3 7-7s-3-7-7-7-7 3-7 7 3 7 7 7z" fill="#292431"/><path d="m2006 293c4 0 7-3 7-7s-3-7-7-7-7 3-7 7 3 7 7 7z" fill="#292431"/><path d="m2006 252c-19 0-34 15-34 34s15 34 34 34 34-15 34-34c0-19-15-34-34-34zm0 55c-11 0-20-9-20-20 0-11 9-20 20-20s20 9 20 20c0 11-9 20-20 20z" fill="#292431"/><path d="m2197 266c4 0 7-3 7-7s-3-7-7-7-7 3-7 7 3 7 7 7z" fill="#292431"/><path d="m2142 321c4 0 7-3 7-7s-3-7-7-7c-4 0-7 3-7 7s3 7 7 7z" fill="#292431"/><path d="m2190 280v18l-45-45h-10v41h14l0-18 45 45h10v-41h-14z" fill="#292431"/><path d="m1549 348v-14h-68v68h68v-14h-55v-41h55z" fill="#292431"/><path d="m1515 375c4 0 7-3 7-7s-3-7-7-7-7 3-7 7 3 7 7 7z" fill="#292431"/><path d="m1624 402c4 0 7-3 7-7s-3-7-7-7c-4 0-7 3-7 7s3 7 7 7z" fill="#292431"/><path d="m1569 348c4 0 7-3 7-7s-3-7-7-7c-4 0-7 3-7 7s3 7 7 7z" fill="#292431"/><path d="m1617 375l0-18-45 45h-10v-41h14l0 18 45-45h10v41h-14z" fill="#292431"/><path d="m1671 368c0 4 3 7 7 7 4 0 7-3 7-7 0-4-3-7-7-7-4 0-7 3-7 7z" fill="#292431"/><path d="m1678 334c-19 0-34 15-34 34 0 19 15 34 34 34 19 0 34-15 34-34 0-19-15-34-34-34zm0 55c-11 0-20-9-20-20s9-20 20-20 20 9 20 20-9 20-20 20z" fill="#292431"/><path d="m1631 430v-14h-68v68h68v-14h-55v-41h55z" fill="#292431"/><path d="m1596 457c4 0 7-3 7-7s-3-7-7-7-7 3-7 7 3 7 7 7z" fill="#292431"/><path d="m1515 457c4 0 7-3 7-7s-3-7-7-7c-4 0-7 3-7 7s3 7 7 7z" fill="#292431"/><path d="m1515 416c-19 0-34 15-34 34s15 34 34 34 34-15 34-34-15-34-34-34zm0 55c-11 0-20-9-20-20 0-11 9-20 20-20s20 9 20 20c0 11-9 20-20 20z" fill="#292431"/><path d="m1706 430c4 0 7-3 7-7s-3-7-7-7c-4 0-7 3-7 7s3 7 7 7z" fill="#292431"/><path d="m1651 484c4 0 7-3 7-7 0-4-3-7-7-7-4 0-7 3-7 7 0 4 3 7 7 7z" fill="#292431"/><path d="m1699 443v18l-45-45h-10v41h14v-18l45 45h10v-41h-14z" fill="#292431"/><path d="m75 184v-14h-68v68h68v-14h-55v-41h55z" fill="#292431"/><path d="m41 211c4 0 7-3 7-7s-3-7-7-7-7 3-7 7 3 7 7 7z" fill="#292431"/><path d="m150 225c-4 0-7 3-7 7 0 4 3 7 7 7 4 0 7-3 7-7 0-4-3-7-7-7z" fill="#292431"/><path d="m96 184c4 0 7-3 7-7s-3-7-7-7c-4 0-7 3-7 7s3 7 7 7z" fill="#292431"/><path d="m130 225l-18 0 45-45v-10h-41v14l18 0-45 45v10h41v-14z" fill="#292431"/><path d="m205 211c4 0 7-3 7-7s-3-7-7-7-7 3-7 7 3 7 7 7z" fill="#292431"/><path d="m205 171c-19 0-34 15-34 34 0 19 15 34 34 34s34-15 34-34c0-19-15-34-34-34zm0 55c-11 0-20-9-20-20 0-11 9-20 20-20 11 0 20 9 20 20 0 11-9 20-20 20z" fill="#292431"/><path d="m157 266v-14h-68v68h68v-14h-55v-41h55z" fill="#292431"/><path d="m123 293c4 0 7-3 7-7s-3-7-7-7-7 3-7 7 3 7 7 7z" fill="#292431"/><path d="m41 293c4 0 7-3 7-7s-3-7-7-7c-4 0-7 3-7 7s3 7 7 7z" fill="#292431"/><path d="m41 252c-19 0-34 15-34 34s15 34 34 34c19 0 34-15 34-34 0-19-15-34-34-34zm0 55c-11 0-20-9-20-20 0-11 9-20 20-20 11 0 20 9 20 20 0 11-9 20-20 20z" fill="#292431"/><path d="m232 266c4 0 7-3 7-7s-3-7-7-7-7 3-7 7 3 7 7 7z" fill="#292431"/><path d="m177 321c4 0 7-3 7-7s-3-7-7-7-7 3-7 7 3 7 7 7z" fill="#292431"/><path d="m225 280l0 18-45-45h-10v41h14l0-18 45 45h10v-41h-14z" fill="#292431"/><path d="m1296 20c4 0 7-3 7-7 0-4-3-7-7-7s-7 3-7 7c0 4 3 7 7 7z" fill="#292431"/><path d="m1242 75c4 0 7-3 7-7 0-4-3-7-7-7s-7 3-7 7c0 4 3 7 7 7z" fill="#292431"/><path d="m1289 34v18l-45-45h-10v41h14v-18l45 45h10v-41h-14z" fill="#292431"/><path d="m1460 102c4 0 7-3 7-7s-3-7-7-7-7 3-7 7 3 7 7 7z" fill="#292431"/><path d="m1405 157c4 0 7-3 7-7 0-4-3-7-7-7s-7 3-7 7c0 4 3 7 7 7z" fill="#292431"/><path d="m1453 116v18l-45-45h-10v41h14v-18l45 45h10v-41h-14z" fill="#292431"/><path d="m1467 20v-14h-68v68h68v-14h-55v-41h55z" fill="#292431"/><path d="m1433 48c4 0 7-3 7-7 0-4-3-7-7-7-4 0-7 3-7 7 0 4 3 7 7 7z" fill="#292431"/><path d="m1303 102v-14h-68v68h68v-14h-55v-41h55z" fill="#292431"/><path d="m1269 130c4 0 7-3 7-7s-3-7-7-7c-4 0-7 3-7 7s3 7 7 7z" fill="#292431"/><path d="m1351 48c4 0 7-3 7-7 0-4-3-7-7-7s-7 3-7 7c0 4 3 7 7 7z" fill="#292431"/><path d="m1351 7c-19 0-34 15-34 34s15 34 34 34 34-15 34-34-15-34-34-34zm0 55c-11 0-20-9-20-20 0-11 9-20 20-20s20 9 20 20c0 11-9 20-20 20z" fill="#292431"/><path d="m1351 130c4 0 7-3 7-7s-3-7-7-7-7 3-7 7 3 7 7 7z" fill="#292431"/><path d="m1351 89c-19 0-34 15-34 34 0 19 15 34 34 34s34-15 34-34c0-19-15-34-34-34zm0 55c-11 0-20-9-20-20 0-11 9-20 20-20s20 9 20 20c0 11-9 20-20 20z" fill="#292431"/><path d="m635 341c0 4 3 7 7 7 4 0 7-3 7-7 0-4-3-7-7-7-4 0-7 3-7 7z" fill="#292431"/><path d="m587 402c4 0 7-3 7-7s-3-7-7-7-7 3-7 7 3 7 7 7z" fill="#292431"/><path d="m635 362l0 18-45-45h-10v41h14l0-18 45 45h10v-41h-14z" fill="#292431"/><path d="m723 430c4 0 7-3 7-7s-3-7-7-7-7 3-7 7 3 7 7 7z" fill="#292431"/><path d="m669 484c4 0 7-3 7-7s-3-7-7-7-7 3-7 7 3 7 7 7z" fill="#292431"/><path d="m703 430l-18 0 45 45v10h-41v-14l18 0-45-45v-10h41v14z" fill="#292431"/><path d="m498 389v14h68v-68h-68v14h55v41h-55z" fill="#292431"/><path d="m532 375c4 0 7-3 7-7s-3-7-7-7-7 3-7 7 3 7 7 7z" fill="#292431"/><path d="m566 430v-14h-68v68h68v-14h-55v-41h55z" fill="#292431"/><path d="m532 457c4 0 7-3 7-7s-3-7-7-7-7 3-7 7 3 7 7 7z" fill="#292431"/><path d="m689 368c0 4 3 7 7 7s7-3 7-7c0-4-3-7-7-7s-7 3-7 7z" fill="#292431"/><path d="m696 334c-19 0-34 15-34 34 0 19 15 34 34 34 19 0 34-15 34-34 0-19-15-34-34-34zm0 55c-11 0-20-9-20-20s9-20 20-20c11 0 20 9 20 20s-9 20-20 20z" fill="#292431"/><path d="m614 457c4 0 7-3 7-7s-3-7-7-7-7 3-7 7 3 7 7 7z" fill="#292431"/><path d="m614 416c-19 0-34 15-34 34s15 34 34 34c19 0 34-15 34-34s-15-34-34-34zm0 55c-11 0-20-9-20-20 0-11 9-20 20-20 11 0 20 9 20 20 0 11-9 20-20 20z" fill="#292431"/><path d="m1869 184c4 0 7-3 7-7s-3-7-7-7c-4 0-7 3-7 7s3 7 7 7z" fill="#292431"/><path d="m1815 239c4 0 7-3 7-7s-3-7-7-7c-4 0-7 3-7 7s3 7 7 7z" fill="#292431"/><path d="m1862 198l0 18-45-45h-10v41h14l0-18 45 45h10v-41h-14z" fill="#292431"/><path d="m1951 266c4 0 7-3 7-7s-3-7-7-7c-4 0-7 3-7 7s3 7 7 7z" fill="#292431"/><path d="m1897 321c4 0 7-3 7-7s-3-7-7-7c-4 0-7 3-7 7s3 7 7 7z" fill="#292431"/><path d="m1931 266l-18 0 45 45v10h-41v-14l18 0-45-45v-10h41v14z" fill="#292431"/><path d="m1726 225v14h68v-68h-68v14h55v41h-55z" fill="#292431"/><path d="m1760 211c4 0 7-3 7-7s-3-7-7-7-7 3-7 7 3 7 7 7z" fill="#292431"/><path d="m1794 266v-14h-68v68h68v-14h-55v-41h55z" fill="#292431"/><path d="m1760 293c4 0 7-3 7-7s-3-7-7-7-7 3-7 7 3 7 7 7z" fill="#292431"/><path d="m1924 211c4 0 7-3 7-7s-3-7-7-7-7 3-7 7 3 7 7 7z" fill="#292431"/><path d="m1924 171c-19 0-34 15-34 34s15 34 34 34 34-15 34-34-15-34-34-34zm0 55c-11 0-20-9-20-20 0-11 9-20 20-20s20 9 20 20c0 11-9 20-20 20z" fill="#292431"/><path d="m1842 293c4 0 7-3 7-7s-3-7-7-7-7 3-7 7 3 7 7 7z" fill="#292431"/><path d="m1842 252c-19 0-34 15-34 34s15 34 34 34c19 0 34-15 34-34 0-19-15-34-34-34zm0 55c-11 0-20-9-20-20 0-11 9-20 20-20s20 9 20 20c0 11-9 20-20 20z" fill="#292431"/><path d="m1126 75h14v-68h-68v68h14v-55h41v55z" fill="#292431"/><path d="m1105 48c4 0 7-3 7-7s-3-7-7-7c-4 0-7 3-7 7s3 7 7 7z" fill="#292431"/><path d="m1023 48c4 0 7-3 7-7s-3-7-7-7-7 3-7 7 3 7 7 7z" fill="#292431"/><path d="m1023 7c-19 0-34 15-34 34 0 19 15 34 34 34s34-15 34-34c0-19-15-34-34-34zm0 55c-11 0-20-9-20-20 0-11 9-20 20-20s20 9 20 20c0 11-9 20-20 20z" fill="#292431"/><path d="m1160 20c4 0 7-3 7-7 0-4-3-7-7-7-4 0-7 3-7 7 0 4 3 7 7 7z" fill="#292431"/><path d="m1214 75c4 0 7-3 7-7 0-4-3-7-7-7-4 0-7 3-7 7 0 4 3 7 7 7z" fill="#292431"/><path d="m1167 34l0 18 45-45h10v41h-14l0-18-45 45h-10v-41h14z" fill="#292431"/><path d="m1051 157c4 0 7-3 7-7s-3-7-7-7c-4 0-7 3-7 7s3 7 7 7z" fill="#292431"/><path d="m996 102c4 0 7-3 7-7 0-4-3-7-7-7s-7 3-7 7c0 4 3 7 7 7z" fill="#292431"/><path d="m1030 143l-18 0 45-45v-10h-41v14l18 0-45 45v10h41v-14z" fill="#292431"/><path d="m1153 102v-14h68v68h-68v-14h55v-41h-55z" fill="#292431"/><path d="m1187 130c4 0 7-3 7-7s-3-7-7-7-7 3-7 7 3 7 7 7z" fill="#292431"/><path d="m1105 130c4 0 7-3 7-7s-3-7-7-7c-4 0-7 3-7 7s3 7 7 7z" fill="#292431"/><path d="m1105 89c-19 0-34 15-34 34 0 19 15 34 34 34 19 0 34-15 34-34 0-19-15-34-34-34zm0 55c-11 0-20-9-20-20 0-11 9-20 20-20s20 9 20 20c0 11-9 20-20 20z" fill="#292431"/><path d="m143 402h14v-68h-68v68h14v-55h41v55z" fill="#292431"/><path d="m123 375c4 0 7-3 7-7s-3-7-7-7-7 3-7 7 3 7 7 7z" fill="#292431"/><path d="m34 368c0 4 3 7 7 7s7-3 7-7c0-4-3-7-7-7s-7 3-7 7z" fill="#292431"/><path d="m41 334c-19 0-34 15-34 34 0 19 15 34 34 34 19 0 34-15 34-34 0-19-15-34-34-34zm0 55c-11 0-20-9-20-20s9-20 20-20c11 0 20 9 20 20s-9 20-20 20z" fill="#292431"/><path d="m184 341c0 4-3 7-7 7-4 0-7-3-7-7 0-4 3-7 7-7 4 0 7 3 7 7z" fill="#292431"/><path d="m232 402c4 0 7-3 7-7s-3-7-7-7-7 3-7 7 3 7 7 7z" fill="#292431"/><path d="m184 362l0 18 45-45h10v41h-14l0-18-45 45h-10v-41h14z" fill="#292431"/><path d="m68 471c-4 0-7 3-7 7 0 4 3 7 7 7 4 0 7-3 7-7 0-4-3-7-7-7z" fill="#292431"/><path d="m14 430c4 0 7-3 7-7s-3-7-7-7c-4 0-7 3-7 7s3 7 7 7z" fill="#292431"/><path d="m48 471l-18 0 45-45v-10h-41v14l18 0-45 45v10h41v-14z" fill="#292431"/><path d="m171 430v-14h68v68h-68v-14h55v-41h-55z" fill="#292431"/><path d="m205 457c4 0 7-3 7-7s-3-7-7-7-7 3-7 7 3 7 7 7z" fill="#292431"/><path d="m123 457c4 0 7-3 7-7s-3-7-7-7-7 3-7 7 3 7 7 7z" fill="#292431"/><path d="m123 416c-19 0-34 15-34 34s15 34 34 34c19 0 34-15 34-34s-15-34-34-34zm0 55c-11 0-20-9-20-20 0-11 9-20 20-20s20 9 20 20c0 11-9 20-20 20z" fill="#292431"/><path d="m635 239h14v-68h-68v68h14v-55h41v55z" fill="#292431"/><path d="m614 211c4 0 7-3 7-7s-3-7-7-7-7 3-7 7 3 7 7 7z" fill="#292431"/><path d="m532 211c4 0 7-3 7-7s-3-7-7-7-7 3-7 7 3 7 7 7z" fill="#292431"/><path d="m532 171c-19 0-34 15-34 34 0 19 15 34 34 34 19 0 34-15 34-34 0-19-15-34-34-34zm0 55c-11 0-20-9-20-20 0-11 9-20 20-20 11 0 20 9 20 20 0 11-9 20-20 20z" fill="#292431"/><path d="m669 184c4 0 7-3 7-7s-3-7-7-7-7 3-7 7 3 7 7 7z" fill="#292431"/><path d="m723 239c-4 0-7-3-7-7 0-4 3-7 7-7 4 0 7 3 7 7 0 4-3 7-7 7z" fill="#292431"/><path d="m675 198l0 18 45-45h10v41h-14l0-18-45 45h-10v-41h14z" fill="#292431"/><path d="m560 321c4 0 7-3 7-7s-3-7-7-7-7 3-7 7 3 7 7 7z" fill="#292431"/><path d="m505 266c4 0 7-3 7-7s-3-7-7-7-7 3-7 7 3 7 7 7z" fill="#292431"/><path d="m539 307l-18 0 45-45v-10h-41v14l18 0-45 45v10h41v-14z" fill="#292431"/><path d="m662 266v-14h68v68h-68v-14h55v-41h-55z" fill="#292431"/><path d="m696 293c4 0 7-3 7-7s-3-7-7-7-7 3-7 7 3 7 7 7z" fill="#292431"/><path d="m614 293c4 0 7-3 7-7s-3-7-7-7-7 3-7 7 3 7 7 7z" fill="#292431"/><path d="m614 252c-19 0-34 15-34 34s15 34 34 34c19 0 34-15 34-34 0-19-15-34-34-34zm0 55c-11 0-20-9-20-20 0-11 9-20 20-20s20 9 20 20c0 11-9 20-20 20z" fill="#292431"/><path d="m1617 75h14v-68h-68v68h14v-55h41v55z" fill="#292431"/><path d="m1596 48c4 0 7-3 7-7s-3-7-7-7c-4 0-7 3-7 7s3 7 7 7z" fill="#292431"/><path d="m1515 48c4 0 7-3 7-7s-3-7-7-7-7 3-7 7 3 7 7 7z" fill="#292431"/><path d="m1515 7c-19 0-34 15-34 34 0 19 15 34 34 34s34-15 34-34c0-19-15-34-34-34zm0 55c-11 0-20-9-20-20 0-11 9-20 20-20s20 9 20 20c0 11-9 20-20 20z" fill="#292431"/><path d="m1651 20c4 0 7-3 7-7 0-4-3-7-7-7-4 0-7 3-7 7 0 4 3 7 7 7z" fill="#292431"/><path d="m1706 75c4 0 7-3 7-7 0-4-3-7-7-7-4 0-7 3-7 7 0 4 3 7 7 7z" fill="#292431"/><path d="m1658 34l0 18 45-45h10v41h-14l0-18-45 45h-10v-41h14z" fill="#292431"/><path d="m1542 143c-4 0-7 3-7 7 0 4 3 7 7 7s7-3 7-7c0-4-3-7-7-7z" fill="#292431"/><path d="m1487 102c4 0 7-3 7-7 0-4-3-7-7-7-4 0-7 3-7 7 0 4 3 7 7 7z" fill="#292431"/><path d="m1521 143l-18 0 45-45v-10h-41v14l18 0-45 45v10h41v-14z" fill="#292431"/><path d="m1644 102v-14h68v68h-68v-14h55v-41h-55z" fill="#292431"/><path d="m1678 130c4 0 7-3 7-7s-3-7-7-7-7 3-7 7 3 7 7 7z" fill="#292431"/><path d="m1596 130c4 0 7-3 7-7s-3-7-7-7-7 3-7 7 3 7 7 7z" fill="#292431"/><path d="m1596 89c-19 0-34 15-34 34 0 19 15 34 34 34 19 0 34-15 34-34 0-19-15-34-34-34zm0 55c-11 0-20-9-20-20 0-11 9-20 20-20s20 9 20 20c0 11-9 20-20 20z" fill="#292431"/><path d="m1371 239h14v-68h-68v68h14v-55h41v55z" fill="#292431"/><path d="m1351 211c4 0 7-3 7-7s-3-7-7-7c-4 0-7 3-7 7s3 7 7 7z" fill="#292431"/><path d="m1242 239c4 0 7-3 7-7s-3-7-7-7-7 3-7 7 3 7 7 7z" fill="#292431"/><path d="m1303 177c0 4-3 7-7 7-4 0-7-3-7-7s3-7 7-7c4 0 7 3 7 7z" fill="#292431"/><path d="m1262 225l18 0-45-45v-10h41v14l-18 0 45 45v10h-41v-14z" fill="#292431"/><path d="m1433 211c4 0 7-3 7-7s-3-7-7-7c-4 0-7 3-7 7s3 7 7 7z" fill="#292431"/><path d="m1433 171c-19 0-34 15-34 34 0 19 15 34 34 34 19 0 34-15 34-34s-15-34-34-34zm0 55c-11 0-20-9-20-20 0-11 9-20 20-20s20 9 20 20c0 11-9 20-20 20z" fill="#292431"/><path d="m1371 252h14v68h-68v-68h14v55h41v-55z" fill="#292431"/><path d="m1351 293c4 0 7-3 7-7s-3-7-7-7c-4 0-7 3-7 7s3 7 7 7z" fill="#292431"/><path d="m1269 293c4 0 7-3 7-7s-3-7-7-7c-4 0-7 3-7 7s3 7 7 7z" fill="#292431"/><path d="m1269 252c-19 0-34 15-34 34 0 19 15 34 34 34 19 0 34-15 34-34 0-19-15-34-34-34zm0 55c-11 0-20-9-20-20 0-11 9-20 20-20s20 9 20 20c0 11-9 20-20 20z" fill="#292431"/><path d="m1405 307c4 0 7 3 7 7 0 4-3 7-7 7-4 0-7-3-7-7 0-4 3-7 7-7z" fill="#292431"/><path d="m1460 266c4 0 7-3 7-7s-3-7-7-7-7 3-7 7 3 7 7 7z" fill="#292431"/><path d="m1426 307l18 0-45-45v-10h41v14l-18 0 45 45v10h-41v-14z" fill="#292431"/><path d="m2053 430v-14h68v68h-68v-14h55v-41h-55z" fill="#292431"/><path d="m2088 457c4 0 7-3 7-7s-3-7-7-7c-4 0-7 3-7 7s3 7 7 7z" fill="#292431"/><path d="m1978 430c4 0 7-3 7-7s-3-7-7-7c-4 0-7 3-7 7s3 7 7 7z" fill="#292431"/><path d="m2040 477c0-4-3-7-7-7-4 0-7 3-7 7 0 4 3 7 7 7 4 0 7-3 7-7z" fill="#292431"/><path d="m1999 430l18 0-45 45v10h41v-14l-18 0 45-45v-10h-41v14z" fill="#292431"/><path d="m2169 457c4 0 7-3 7-7s-3-7-7-7-7 3-7 7 3 7 7 7z" fill="#292431"/><path d="m2204 450c0-19-15-34-34-34s-34 15-34 34 15 34 34 34 34-15 34-34zm-14 0c0 11-9 20-20 20s-20-9-20-20c0-11 9-20 20-20s20 9 20 20z" fill="#292431"/><path d="m2108 402h14v-68h-68v68h14v-55h41v55z" fill="#292431"/><path d="m2088 375c4 0 7-3 7-7s-3-7-7-7c-4 0-7 3-7 7s3 7 7 7z" fill="#292431"/><path d="m2006 375c4 0 7-3 7-7s-3-7-7-7-7 3-7 7 3 7 7 7z" fill="#292431"/><path d="m2040 368c0-19-15-34-34-34-19 0-34 15-34 34 0 19 15 34 34 34 19 0 34-15 34-34zm-14 0c0 11-9 20-20 20s-20-9-20-20c0-11 9-20 20-20s20 9 20 20z" fill="#292431"/><path d="m2142 348c4 0 7-3 7-7s-3-7-7-7-7 3-7 7 3 7 7 7z" fill="#292431"/><path d="m2197 402c4 0 7-3 7-7s-3-7-7-7-7 3-7 7 3 7 7 7z" fill="#292431"/><path d="m2163 348l18 0-45 45v10h41v-14l-18 0 45-45v-10h-41v14z" fill="#292431"/><path d="m1862 75h14v-68h-68v68h14v-55h41v55z" fill="#292431"/><path d="m1842 48c4 0 7-3 7-7s-3-7-7-7-7 3-7 7 3 7 7 7z" fill="#292431"/><path d="m1733 75c4 0 7-3 7-7s-3-7-7-7c-4 0-7 3-7 7s3 7 7 7z" fill="#292431"/><path d="m1787 20c4 0 7-3 7-7 0-4-3-7-7-7-4 0-7 3-7 7 0 4 3 7 7 7z" fill="#292431"/><path d="m1753 61l18 0-45-45v-10h41v14l-18 0 45 45v10h-41v-14z" fill="#292431"/><path d="m1924 48c4 0 7-3 7-7s-3-7-7-7-7 3-7 7 3 7 7 7z" fill="#292431"/><path d="m1924 7c-19 0-34 15-34 34 0 19 15 34 34 34s34-15 34-34c0-19-15-34-34-34zm0 55c-11 0-20-9-20-20 0-11 9-20 20-20s20 9 20 20c0 11-9 20-20 20z" fill="#292431"/><path d="m1862 89h14v68h-68v-68h14v55h41v-55z" fill="#292431"/><path d="m1842 130c4 0 7-3 7-7s-3-7-7-7c-4 0-7 3-7 7s3 7 7 7z" fill="#292431"/><path d="m1760 130c4 0 7-3 7-7s-3-7-7-7-7 3-7 7 3 7 7 7z" fill="#292431"/><path d="m1760 89c-19 0-34 15-34 34 0 19 15 34 34 34 19 0 34-15 34-34 0-19-15-34-34-34zm0 55c-11 0-20-9-20-20 0-11 9-20 20-20s20 9 20 20c0 11-9 20-20 20z" fill="#292431"/><path d="m1897 157c4 0 7-3 7-7s-3-7-7-7-7 3-7 7 3 7 7 7z" fill="#292431"/><path d="m1951 102c4 0 7-3 7-7 0-4-3-7-7-7s-7 3-7 7c0 4 3 7 7 7z" fill="#292431"/><path d="m1917 143l18 0-45-45v-10h41v14l-18 0 45 45v10h-41v-14z" fill="#292431"/><path d="m389 402h14v-68h-68v68h14v-55h41v55z" fill="#292431"/><path d="m368 375c4 0 7-3 7-7s-3-7-7-7-7 3-7 7 3 7 7 7z" fill="#292431"/><path d="m259 402c4 0 7-3 7-7s-3-7-7-7-7 3-7 7 3 7 7 7z" fill="#292431"/><path d="m321 341c0 4-3 7-7 7-4 0-7-3-7-7 0-4 3-7 7-7 4 0 7 3 7 7z" fill="#292431"/><path d="m280 389l18 0-45-45v-10h41v14l-18 0 45 45v10h-41v-14z" fill="#292431"/><path d="m450 375c4 0 7-3 7-7s-3-7-7-7-7 3-7 7 3 7 7 7z" fill="#292431"/><path d="m450 334c-19 0-34 15-34 34s15 34 34 34c19 0 34-15 34-34s-15-34-34-34zm0 55c-11 0-20-9-20-20 0-11 9-20 20-20 11 0 20 9 20 20 0 11-9 20-20 20z" fill="#292431"/><path d="m389 416h14v68h-68v-68h14v55h41v-55z" fill="#292431"/><path d="m368 457c4 0 7-3 7-7s-3-7-7-7-7 3-7 7 3 7 7 7z" fill="#292431"/><path d="m287 457c4 0 7-3 7-7s-3-7-7-7-7 3-7 7 3 7 7 7z" fill="#292431"/><path d="m287 416c-19 0-34 15-34 34 0 19 15 34 34 34s34-15 34-34c0-19-15-34-34-34zm0 55c-11 0-20-9-20-20 0-11 9-20 20-20 11 0 20 9 20 20 0 11-9 20-20 20z" fill="#292431"/><path d="m423 484c4 0 7-3 7-7s-3-7-7-7-7 3-7 7 3 7 7 7z" fill="#292431"/><path d="m478 430c4 0 7-3 7-7s-3-7-7-7-7 3-7 7 3 7 7 7z" fill="#292431"/><path d="m443 471l18 0-45-45v-10h41v14l-18 0 45 45v10h-41v-14z" fill="#292431"/><path d="m389 75h14v-68h-68v68h14v-55h41v55z" fill="#292431"/><path d="m368 48c4 0 7-3 7-7s-3-7-7-7-7 3-7 7 3 7 7 7z" fill="#292431"/><path d="m259 75c4 0 7-3 7-7s-3-7-7-7-7 3-7 7 3 7 7 7z" fill="#292431"/><path d="m314 20c4 0 7-3 7-7 0-4-3-7-7-7s-7 3-7 7c0 4 3 7 7 7z" fill="#292431"/><path d="m280 61l18 0-45-45v-10h41v14l-18 0 45 45v10h-41v-14z" fill="#292431"/><path d="m450 48c4 0 7-3 7-7s-3-7-7-7-7 3-7 7 3 7 7 7z" fill="#292431"/><path d="m450 7c-19 0-34 15-34 34 0 19 15 34 34 34 19 0 34-15 34-34s-15-34-34-34zm0 55c-11 0-20-9-20-20 0-11 9-20 20-20 11 0 20 9 20 20 0 11-9 20-20 20z" fill="#292431"/><path d="m389 89h14v68h-68v-68h14v55h41v-55z" fill="#292431"/><path d="m368 130c4 0 7-3 7-7s-3-7-7-7-7 3-7 7 3 7 7 7z" fill="#292431"/><path d="m287 130c4 0 7-3 7-7s-3-7-7-7-7 3-7 7 3 7 7 7z" fill="#292431"/><path d="m287 89c-19 0-34 15-34 34 0 19 15 34 34 34s34-15 34-34c0-19-15-34-34-34zm0 55c-11 0-20-9-20-20 0-11 9-20 20-20 11 0 20 9 20 20 0 11-9 20-20 20z" fill="#292431"/><path d="m423 157c4 0 7-3 7-7s-3-7-7-7-7 3-7 7 3 7 7 7z" fill="#292431"/><path d="m478 102c4 0 7-3 7-7 0-4-3-7-7-7s-7 3-7 7c0 4 3 7 7 7z" fill="#292431"/><path d="m443 143l18 0-45-45v-10h41v14l-18 0 45 45v10h-41v-14z" fill="#292431"/><path d="m1317 389v14h68v-68h-68v14h55v41h-55z" fill="#292431"/><path d="m1351 375c4 0 7-3 7-7s-3-7-7-7c-4 0-7 3-7 7s3 7 7 7z" fill="#292431"/><path d="m1242 348c4 0 7-3 7-7s-3-7-7-7-7 3-7 7 3 7 7 7z" fill="#292431"/><path d="m1303 396c0-4-3-7-7-7-4 0-7 3-7 7s3 7 7 7c4 0 7-3 7-7z" fill="#292431"/><path d="m1262 348l18 0-45 45v10h41v-14l-18 0 45-45v-10h-41v14z" fill="#292431"/><path d="m1433 375c4 0 7-3 7-7s-3-7-7-7-7 3-7 7 3 7 7 7z" fill="#292431"/><path d="m1433 334c-19 0-34 15-34 34s15 34 34 34 34-15 34-34-15-34-34-34zm0 55c-11 0-20-9-20-20 0-11 9-20 20-20s20 9 20 20c0 11-9 20-20 20z" fill="#292431"/><path d="m1385 430v-14h-68v68h68v-14h-55v-41h55z" fill="#292431"/><path d="m1351 457c4 0 7-3 7-7s-3-7-7-7-7 3-7 7 3 7 7 7z" fill="#292431"/><path d="m1262 450c0 4 3 7 7 7 4 0 7-3 7-7 0-4-3-7-7-7-4 0-7 3-7 7z" fill="#292431"/><path d="m1269 416c-19 0-34 15-34 34 0 19 15 34 34 34s34-15 34-34c0-19-15-34-34-34zm0 55c-11 0-20-9-20-20 0-11 9-20 20-20s20 9 20 20c0 11-9 20-20 20z" fill="#292431"/><path d="m1460 430c4 0 7-3 7-7s-3-7-7-7c-4 0-7 3-7 7s3 7 7 7z" fill="#292431"/><path d="m1405 484c4 0 7-3 7-7s-3-7-7-7c-4 0-7 3-7 7s3 7 7 7z" fill="#292431"/><path d="m1453 443v18l-45-45h-10v41h14l0-18 45 45h10v-41h-14z" fill="#292431"/><path d="m89 61v14h68v-68h-68v14h55v41h-55z" fill="#292431"/><path d="m123 48c4 0 7-3 7-7 0-4-3-7-7-7s-7 3-7 7c0 4 3 7 7 7z" fill="#292431"/><path d="m14 20c4 0 7-3 7-7 0-4-3-7-7-7-4 0-7 3-7 7 0 4 3 7 7 7z" fill="#292431"/><path d="m68 75c4 0 7-3 7-7s-3-7-7-7c-4 0-7 3-7 7s3 7 7 7z" fill="#292431"/><path d="m34 20l18 0-45 45v10h41v-14l-18 0 45-45v-10h-41v14z" fill="#292431"/><path d="m205 48c4 0 7-3 7-7s-3-7-7-7-7 3-7 7 3 7 7 7z" fill="#292431"/><path d="m205 7c-19 0-34 15-34 34 0 19 15 34 34 34 19 0 34-15 34-34s-15-34-34-34zm0 55c-11 0-20-9-20-20 0-11 9-20 20-20 11 0 20 9 20 20 0 11-9 20-20 20z" fill="#292431"/><path d="m157 102v-14h-68v68h68v-14h-55v-41h55z" fill="#292431"/><path d="m123 130c4 0 7-3 7-7s-3-7-7-7-7 3-7 7 3 7 7 7z" fill="#292431"/><path d="m41 130c4 0 7-3 7-7s-3-7-7-7c-4 0-7 3-7 7s3 7 7 7z" fill="#292431"/><path d="m41 89c-19 0-34 15-34 34 0 19 15 34 34 34s34-15 34-34c0-19-15-34-34-34zm0 55c-11 0-20-9-20-20 0-11 9-20 20-20 11 0 20 9 20 20 0 11-9 20-20 20z" fill="#292431"/><path d="m232 102c4 0 7-3 7-7s-3-7-7-7-7 3-7 7 3 7 7 7z" fill="#292431"/><path d="m177 157c4 0 7-3 7-7s-3-7-7-7-7 3-7 7 3 7 7 7z" fill="#292431"/><path d="m225 116l0 18-45-45h-10v41h14l0-18 45 45h10v-41h-14z" fill="#292431"/><path d="m894 348v-14h-68v68h68v-14h-55v-41h55z" fill="#292431"/><path d="m860 375c4 0 7-3 7-7s-3-7-7-7-7 3-7 7 3 7 7 7z" fill="#292431"/><path d="m744 471v14h68v-68h-68v14h55v41h-55z" fill="#292431"/><path d="m778 457c4 0 7-3 7-7s-3-7-7-7-7 3-7 7 3 7 7 7z" fill="#292431"/><path d="m887 484c4 0 7-3 7-7s-3-7-7-7-7 3-7 7 3 7 7 7z" fill="#292431"/><path d="m832 430c4 0 7-3 7-7s-3-7-7-7-7 3-7 7 3 7 7 7z" fill="#292431"/><path d="m866 471l-18 0 45-45v-10h-41v14l18 0-45 45v10h41v-14z" fill="#292431"/><path d="m778 375c4 0 7-3 7-7s-3-7-7-7-7 3-7 7 3 7 7 7z" fill="#292431"/><path d="m778 334c-19 0-34 15-34 34s15 34 34 34c19 0 34-15 34-34s-15-34-34-34zm0 55c-11 0-20-9-20-20 0-11 9-20 20-20 11 0 20 9 20 20 0 11-9 20-20 20z" fill="#292431"/><path d="m941 457c4 0 7-3 7-7s-3-7-7-7-7 3-7 7 3 7 7 7z" fill="#292431"/><path d="m941 416c-19 0-34 15-34 34 0 19 15 34 34 34s34-15 34-34c0-19-15-34-34-34zm0 55c-11 0-20-9-20-20 0-11 9-20 20-20 11 0 20 9 20 20 0 11-9 20-20 20z" fill="#292431"/><path d="m969 348c4 0 7-3 7-7s-3-7-7-7-7 3-7 7 3 7 7 7z" fill="#292431"/><path d="m914 402c4 0 7-3 7-7 0-4-3-7-7-7-4 0-7 3-7 7 0 4 3 7 7 7z" fill="#292431"/><path d="m962 362l0 18-45-45h-10v41h14l0-18 45 45h10v-41h-14z" fill="#292431"/><path d="m2122 20v-14h-68v68h68v-14h-55v-41h55z" fill="#292431"/><path d="m2088 48c4 0 7-3 7-7s-3-7-7-7-7 3-7 7 3 7 7 7z" fill="#292431"/><path d="m1972 143v14h68v-68h-68v14h55v41h-55z" fill="#292431"/><path d="m2006 130c4 0 7-3 7-7s-3-7-7-7-7 3-7 7 3 7 7 7z" fill="#292431"/><path d="m2115 143c-4 0-7 3-7 7s3 7 7 7c4 0 7-3 7-7 0-4-3-7-7-7z" fill="#292431"/><path d="m2060 102c4 0 7-3 7-7s-3-7-7-7-7 3-7 7 3 7 7 7z" fill="#292431"/><path d="m2094 143l-18 0 45-45v-10h-41v14l18 0-45 45v10h41v-14z" fill="#292431"/><path d="m2006 48c4 0 7-3 7-7s-3-7-7-7-7 3-7 7 3 7 7 7z" fill="#292431"/><path d="m2006 7c-19 0-34 15-34 34 0 19 15 34 34 34s34-15 34-34-15-34-34-34zm0 55c-11 0-20-9-20-20 0-11 9-20 20-20s20 9 20 20c0 11-9 20-20 20z" fill="#292431"/><path d="m2169 130c4 0 7-3 7-7s-3-7-7-7-7 3-7 7 3 7 7 7z" fill="#292431"/><path d="m2169 89c-19 0-34 15-34 34 0 19 15 34 34 34 19 0 34-15 34-34 0-19-15-34-34-34zm0 55c-11 0-20-9-20-20 0-11 9-20 20-20s20 9 20 20c0 11-9 20-20 20z" fill="#292431"/><path d="m2197 20c4 0 7-3 7-7 0-4-3-7-7-7s-7 3-7 7c0 4 3 7 7 7z" fill="#292431"/><path d="m2142 75c4 0 7-3 7-7 0-4-3-7-7-7-4 0-7 3-7 7 0 4 3 7 7 7z" fill="#292431"/><path d="m2190 34v18l-45-45h-10v41h14l0-18 45 45h10v-41h-14z" fill="#292431"/><path d="m1631 184v-14h-68v68h68v-14h-55v-41h55z" fill="#292431"/><path d="m1596 211c4 0 7-3 7-7s-3-7-7-7-7 3-7 7 3 7 7 7z" fill="#292431"/><path d="m1480 307v14h68v-68h-68v14h55v41h-55z" fill="#292431"/><path d="m1515 280c-4 0-7 3-7 7 0 4 3 7 7 7s7-3 7-7c0-4-3-7-7-7z" fill="#292431"/><path d="m1624 321c4 0 7-3 7-7s-3-7-7-7-7 3-7 7 3 7 7 7z" fill="#292431"/><path d="m1569 266c4 0 7-3 7-7s-3-7-7-7-7 3-7 7 3 7 7 7z" fill="#292431"/><path d="m1603 307l-18 0 45-45v-10h-41v14l18 0-45 45v10h41v-14z" fill="#292431"/><path d="m1515 211c4 0 7-3 7-7s-3-7-7-7c-4 0-7 3-7 7s3 7 7 7z" fill="#292431"/><path d="m1515 171c-19 0-34 15-34 34 0 19 15 34 34 34s34-15 34-34-15-34-34-34zm0 55c-11 0-20-9-20-20 0-11 9-20 20-20s20 9 20 20c0 11-9 20-20 20z" fill="#292431"/><path d="m1678 293c4 0 7-3 7-7s-3-7-7-7c-4 0-7 3-7 7s3 7 7 7z" fill="#292431"/><path d="m1678 252c-19 0-34 15-34 34 0 19 15 34 34 34 19 0 34-15 34-34 0-19-15-34-34-34zm0 55c-11 0-20-9-20-20 0-11 9-20 20-20s20 9 20 20c0 11-9 20-20 20z" fill="#292431"/><path d="m1706 184c4 0 7-3 7-7s-3-7-7-7c-4 0-7 3-7 7s3 7 7 7z" fill="#292431"/><path d="m1651 239c4 0 7-3 7-7 0-4-3-7-7-7-4 0-7 3-7 7 0 4 3 7 7 7z" fill="#292431"/><path d="m1699 198v18l-45-45h-10v41h14v-18l45 45h10v-41h-14z" fill="#292431"/><path d="m1214 348c4 0 7-3 7-7s-3-7-7-7-7 3-7 7 3 7 7 7z" fill="#292431"/><path d="m1160 402c4 0 7-3 7-7s-3-7-7-7-7 3-7 7 3 7 7 7z" fill="#292431"/><path d="m1208 362v18l-45-45h-10v41h14v-18l45 45h10v-41h-14z" fill="#292431"/><path d="m1058 348v-14h-68v68h68v-14h-55v-41h55z" fill="#292431"/><path d="m1023 375c4 0 7-3 7-7s-3-7-7-7c-4 0-7 3-7 7s3 7 7 7z" fill="#292431"/><path d="m1105 375c4 0 7-3 7-7s-3-7-7-7-7 3-7 7 3 7 7 7z" fill="#292431"/><path d="m1105 334c-19 0-34 15-34 34s15 34 34 34c19 0 34-15 34-34s-15-34-34-34zm0 55c-11 0-20-9-20-20 0-11 9-20 20-20s20 9 20 20c0 11-9 20-20 20z" fill="#292431"/><path d="m1044 423c0 4 3 7 7 7s7-3 7-7-3-7-7-7-7 3-7 7z" fill="#292431"/><path d="m996 484c4 0 7-3 7-7 0-4-3-7-7-7-4 0-7 3-7 7 0 4 3 7 7 7z" fill="#292431"/><path d="m1044 443v18l-45-45h-10v41h14v-18l45 45h10v-41h-14z" fill="#292431"/><path d="m1221 430v-14h-68v68h68v-14h-55v-41h55z" fill="#292431"/><path d="m1187 457c4 0 7-3 7-7s-3-7-7-7c-4 0-7 3-7 7s3 7 7 7z" fill="#292431"/><path d="m1105 457c4 0 7-3 7-7s-3-7-7-7-7 3-7 7 3 7 7 7z" fill="#292431"/><path d="m1105 416c-19 0-34 15-34 34 0 19 15 34 34 34 19 0 34-15 34-34 0-19-15-34-34-34zm0 55c-11 0-20-9-20-20 0-11 9-20 20-20s20 9 20 20c0 11-9 20-20 20z" fill="#292431"/><path d="m478 184c4 0 7-3 7-7s-3-7-7-7-7 3-7 7 3 7 7 7z" fill="#292431"/><path d="m423 239c4 0 7-3 7-7s-3-7-7-7-7 3-7 7 3 7 7 7z" fill="#292431"/><path d="m471 198l0 18-45-45h-10v41h14l0-18 45 45h10v-41h-14z" fill="#292431"/><path d="m321 184v-14h-68v68h68v-14h-55v-41h55z" fill="#292431"/><path d="m287 211c4 0 7-3 7-7s-3-7-7-7-7 3-7 7 3 7 7 7z" fill="#292431"/><path d="m368 211c4 0 7-3 7-7s-3-7-7-7-7 3-7 7 3 7 7 7z" fill="#292431"/><path d="m368 171c-19 0-34 15-34 34 0 19 15 34 34 34s34-15 34-34c0-19-15-34-34-34zm0 55c-11 0-20-9-20-20 0-11 9-20 20-20 11 0 20 9 20 20 0 11-9 20-20 20z" fill="#292431"/><path d="m314 266c4 0 7-3 7-7s-3-7-7-7-7 3-7 7 3 7 7 7z" fill="#292431"/><path d="m259 321c4 0 7-3 7-7 0-4-3-7-7-7-4 0-7 3-7 7 0 4 3 7 7 7z" fill="#292431"/><path d="m307 280v18l-45-45h-10v41h14l0-18 45 45h10v-41h-14z" fill="#292431"/><path d="m484 266v-14h-68v68h68v-14h-55v-41h55z" fill="#292431"/><path d="m450 293c4 0 7-3 7-7s-3-7-7-7-7 3-7 7 3 7 7 7z" fill="#292431"/><path d="m368 293c4 0 7-3 7-7s-3-7-7-7-7 3-7 7 3 7 7 7z" fill="#292431"/><path d="m368 252c-19 0-34 15-34 34 0 19 15 34 34 34s34-15 34-34c0-19-15-34-34-34zm0 55c-11 0-20-9-20-20 0-11 9-20 20-20 11 0 20 9 20 20 0 11-9 20-20 20z" fill="#292431"/><path d="m723 20c4 0 7-3 7-7 0-4-3-7-7-7s-7 3-7 7c0 4 3 7 7 7z" fill="#292431"/><path d="m669 75c4 0 7-3 7-7s-3-7-7-7-7 3-7 7 3 7 7 7z" fill="#292431"/><path d="m716 34l0 18-45-45h-10v41h14l0-18 45 45h10v-41h-14z" fill="#292431"/><path d="m566 20v-14h-68v68h68v-14h-55v-41h55z" fill="#292431"/><path d="m532 48c4 0 7-3 7-7s-3-7-7-7-7 3-7 7 3 7 7 7z" fill="#292431"/><path d="m614 48c4 0 7-3 7-7s-3-7-7-7-7 3-7 7 3 7 7 7z" fill="#292431"/><path d="m614 7c-19 0-34 15-34 34 0 19 15 34 34 34 19 0 34-15 34-34s-15-34-34-34zm0 55c-11 0-20-9-20-20 0-11 9-20 20-20 11 0 20 9 20 20 0 11-9 20-20 20z" fill="#292431"/><path d="m560 102c4 0 7-3 7-7s-3-7-7-7-7 3-7 7 3 7 7 7z" fill="#292431"/><path d="m505 157c4 0 7-3 7-7s-3-7-7-7-7 3-7 7 3 7 7 7z" fill="#292431"/><path d="m553 116v18l-45-45h-10v41h14l0-18 45 45h10v-41h-14z" fill="#292431"/><path d="m730 102v-14h-68v68h68v-14h-55v-41h55z" fill="#292431"/><path d="m696 130c4 0 7-3 7-7s-3-7-7-7-7 3-7 7 3 7 7 7z" fill="#292431"/><path d="m614 130c4 0 7-3 7-7s-3-7-7-7-7 3-7 7 3 7 7 7z" fill="#292431"/><path d="m614 89c-19 0-34 15-34 34s15 34 34 34c19 0 34-15 34-34s-15-34-34-34zm0 55c-11 0-20-9-20-20 0-11 9-20 20-20 11 0 20 9 20 20s-9 20-20 20z" fill="#292431"/></svg>
