<?xml version="1.0" encoding="utf-8"?>
<!-- Generator: Adobe Illustrator 16.0.0, SVG Export Plug-In . SVG Version: 6.00 Build 0)  -->
<!DOCTYPE svg PUBLIC "-//W3C//DTD SVG 1.1//EN" "http://www.w3.org/Graphics/SVG/1.1/DTD/svg11.dtd">
<svg version="1.1" id="Layer_1" xmlns="http://www.w3.org/2000/svg" xmlns:xlink="http://www.w3.org/1999/xlink" x="0px" y="0px"
	 width="212.104px" height="137.453px" viewBox="0 0 212.104 137.453" enable-background="new 0 0 212.104 137.453"
	 xml:space="preserve">
<g>
	<g>
		<path fill="#362E43" d="M174.42,31.472c0,3.428,2.779,6.207,6.208,6.207c3.43,0,6.21-2.779,6.21-6.207
			c0-3.432-2.78-6.209-6.21-6.209C177.2,25.263,174.42,28.04,174.42,31.472z"/>
		<path fill="#362E43" d="M180.629,0.429c-17.143,0-31.041,13.896-31.041,31.043c0,17.145,13.898,31.04,31.041,31.04
			c17.145,0,31.042-13.896,31.042-31.04C211.671,14.325,197.774,0.429,180.629,0.429z M180.631,50.097
			c-10.286,0-18.625-8.34-18.625-18.625s8.339-18.625,18.625-18.625c10.284,0,18.623,8.34,18.623,18.625
			S190.916,50.097,180.631,50.097z"/>
	</g>
	<g>
		<circle fill="#362E43" cx="31.65" cy="105.967" r="6.209"/>
		<path fill="#362E43" d="M31.651,74.926c-17.144,0-31.042,13.898-31.042,31.041c0,17.145,13.898,31.041,31.042,31.041
			c17.145,0,31.041-13.896,31.041-31.041C62.692,88.824,48.795,74.926,31.651,74.926z M31.652,124.592
			c-10.286,0-18.625-8.338-18.625-18.625c0-10.285,8.339-18.621,18.625-18.621c10.285,0,18.624,8.336,18.624,18.621
			C50.276,116.254,41.937,124.592,31.652,124.592z"/>
	</g>
	<g>
		<polygon fill="#362E43" points="137.171,12.847 137.171,0.429 75.088,0.423 75.088,62.506 137.171,62.512 137.171,50.097 
			87.505,50.097 87.505,12.847 		"/>
		<path fill="#362E43" d="M106.129,37.673c3.43,0,6.21-2.777,6.21-6.209c0-3.428-2.78-6.207-6.21-6.207
			c-3.428,0-6.208,2.779-6.208,6.207C99.921,34.896,102.702,37.673,106.129,37.673z"/>
	</g>
	<g>
		<path fill="#362E43" d="M50.274,6.651c0,3.426,2.778,6.209,6.209,6.209c3.429,0,6.209-2.783,6.209-6.209
			c0-3.432-2.78-6.207-6.209-6.207C53.052,0.444,50.274,3.22,50.274,6.651z"/>
		<path fill="#362E43" d="M6.817,62.469c3.43,0,6.21-2.775,6.21-6.207c0-3.43-2.78-6.208-6.21-6.208
			c-3.428,0-6.208,2.778-6.208,6.208C0.609,59.693,3.389,62.469,6.817,62.469z"/>
		<polygon fill="#362E43" points="50.274,25.255 50.278,41.317 9.403,0.444 0.609,0.444 0.609,37.685 13.026,37.685 13.022,21.622 
			53.907,62.469 62.691,62.469 62.691,25.255 		"/>
	</g>
	<g>
		<path fill="#362E43" d="M124.753,81.121c0,3.426,2.778,6.209,6.209,6.209c3.429,0,6.209-2.783,6.209-6.209
			c0-3.432-2.78-6.209-6.209-6.209C127.532,74.912,124.753,77.689,124.753,81.121z"/>
		<circle fill="#362E43" cx="81.296" cy="130.729" r="6.208"/>
		<polygon fill="#362E43" points="124.753,99.723 124.756,115.785 83.881,74.912 75.088,74.912 75.088,112.152 87.505,112.152 
			87.501,96.09 128.386,136.938 137.17,136.938 137.17,99.723 		"/>
	</g>
	<g>
		<polygon fill="#362E43" points="211.67,87.336 211.67,74.918 149.587,74.912 149.587,136.994 211.67,137 211.67,124.584 
			162.004,124.584 162.004,87.336 		"/>
		<circle fill="#362E43" cx="180.629" cy="105.953" r="6.209"/>
	</g>
</g>
</svg>
