<?xml version="1.0" encoding="utf-8"?>
<!-- Generator: Adobe Illustrator 16.0.0, SVG Export Plug-In . SVG Version: 6.00 Build 0)  -->
<!DOCTYPE svg PUBLIC "-//W3C//DTD SVG 1.1//EN" "http://www.w3.org/Graphics/SVG/1.1/DTD/svg11.dtd">
<svg version="1.1" id="Layer_1" xmlns="http://www.w3.org/2000/svg" xmlns:xlink="http://www.w3.org/1999/xlink" x="0px" y="0px"
	 width="193.609px" height="193.609px" viewBox="0 0 193.609 193.609" enable-background="new 0 0 193.609 193.609"
	 xml:space="preserve">
<rect fill="none" width="193.609" height="193.609"/>
<g>
	<circle fill="#5B506B" cx="96.803" cy="96.805" r="78.815"/>
	<rect x="101.127" y="114.339" fill="#40384C" width="26" height="26"/>
	<rect x="50.85" y="79.69" fill="#40384C" width="22.484" height="26"/>
	<g>
		<rect x="109.625" y="48.558" fill="#40384C" width="2" height="57.133"/>
	</g>
	<g>
		<rect x="95.803" y="48.558" fill="#40384C" width="2" height="57.133"/>
	</g>
	<g>
		<rect x="81.982" y="48.558" fill="#40384C" width="2" height="57.133"/>
	</g>
	<path fill="#5B506B" d="M82.98,56.221c-3.834,0-6.953,3.12-6.953,6.956s3.119,6.957,6.953,6.957c3.836,0,6.957-3.121,6.957-6.957
		S86.816,56.221,82.98,56.221z"/>
	<path fill="#FF466A" stroke="#40384C" stroke-width="2" stroke-linejoin="round" stroke-miterlimit="10" d="M82.98,66.34
		c-2.92,0-5.287-2.373-5.287-5.292c0-2.924,2.367-5.29,5.287-5.29c2.922,0,5.291,2.366,5.291,5.29
		C88.271,63.967,85.902,66.34,82.98,66.34z"/>
	<path fill="#40384C" d="M125.4,65.204l-6.297,14.538l3.606,9.25l0.776-1.358c1.528-2.675,2.11-5.786,1.653-8.833l5.645-4.86
		l-1.985,14.041l3.587,10.182l3.522,2.467l13.061-22.196L125.4,65.204z"/>
	<g>
		<path fill="#9B98F6" d="M68.449,55.561c0.812,1.213,1.285,2.67,1.285,4.239c0,3.103-1.852,5.767-4.506,6.965l1.477,3.28
			c3.906-1.762,6.629-5.682,6.629-10.245c0-2.308-0.697-4.451-1.889-6.235L68.449,55.561z"/>
		<path fill="#FF466A" d="M62.092,52.159c1.988,0,3.793,0.765,5.152,2.008l2.428-2.653c-2-1.83-4.654-2.956-7.58-2.956
			c-0.691,0-1.365,0.071-2.023,0.191l0.648,3.54C61.164,52.208,61.623,52.159,62.092,52.159z"/>
		<path fill="#00FF9C" d="M62.092,67.442c-4.221,0-7.641-3.422-7.641-7.643c0-3.103,1.852-5.767,4.506-6.963l-1.477-3.282
			c-3.906,1.762-6.631,5.682-6.631,10.245c0,6.209,5.033,11.242,11.242,11.242c0.693,0,1.367-0.071,2.025-0.191l-0.648-3.538
			C63.021,67.394,62.562,67.442,62.092,67.442z"/>
	</g>
	<rect x="54.062" y="92.236" fill="#9B98F6" width="3.213" height="13.454"/>
	<rect x="60.486" y="84.212" fill="#00FF9C" width="3.213" height="21.479"/>
	<rect x="66.91" y="99.911" fill="#FF466A" width="3.213" height="5.779"/>
	<circle fill="#00FF9C" cx="106.516" cy="119.729" r="1.654"/>
	<circle fill="#9B98F6" cx="114.127" cy="119.729" r="1.654"/>
	<circle fill="#00FF9C" cx="52.504" cy="119.729" r="1.654"/>
	<circle fill="#9B98F6" cx="57.502" cy="119.729" r="1.654"/>
	<circle fill="#FF466A" cx="121.738" cy="119.729" r="1.654"/>
	<circle fill="#9B98F6" cx="106.516" cy="134.949" r="1.654"/>
	<circle fill="#FF466A" cx="114.127" cy="134.949" r="1.654"/>
	<circle fill="#00FF9C" cx="121.738" cy="134.949" r="1.654"/>
	<circle fill="#FF466A" cx="106.516" cy="127.339" r="1.654"/>
	<circle fill="#00FF9C" cx="114.127" cy="127.339" r="1.654"/>
	<circle fill="#9B98F6" cx="121.738" cy="127.339" r="1.654"/>
	<path fill="#5B506B" d="M96.803,88.371c-3.834,0-6.955,3.12-6.955,6.956s3.121,6.957,6.955,6.957c3.836,0,6.955-3.121,6.955-6.957
		S100.639,88.371,96.803,88.371z"/>
	<path fill="#9B98F6" stroke="#40384C" stroke-width="2" stroke-linejoin="round" stroke-miterlimit="10" d="M96.803,98.49
		c-2.922,0-5.289-2.373-5.289-5.292c0-2.924,2.367-5.29,5.289-5.29s5.289,2.366,5.289,5.29
		C102.092,96.117,99.725,98.49,96.803,98.49z"/>
	<path fill="#5B506B" d="M110.625,72.302c-3.834,0-6.955,3.12-6.955,6.956s3.121,6.957,6.955,6.957c3.836,0,6.955-3.121,6.955-6.957
		S114.461,72.302,110.625,72.302z"/>
	<path fill="#00FF9C" stroke="#40384C" stroke-width="2" stroke-linejoin="round" stroke-miterlimit="10" d="M110.625,82.421
		c-2.922,0-5.289-2.373-5.289-5.292c0-2.924,2.367-5.29,5.289-5.29s5.289,2.366,5.289,5.29
		C115.914,80.048,113.547,82.421,110.625,82.421z"/>
	<polygon fill="#5B506B" points="146.557,182.93 136.127,133.295 155.377,120.121 	"/>
	<path fill="#2E2837" d="M146.557,182.93v-61.369l-21.239-12.387l-21.522-21.176h5.576c3.188,0,6.321,0.818,9.103,2.375
		l13.911,7.791l8.496-15.587l-15.481-17.373l-11.102,1.827c-2.152,0.354-4.359,0.161-6.417-0.562l-4.086-1.436l19.49-7.604
		c1.331-0.519,2.828-0.38,4.04,0.376l18.897,11.784c1.537,0.958,2.851,2.235,3.853,3.743l13.072,19.677
		c1.08,1.625,1.771,3.478,2.017,5.413l8.914,69.888L146.557,182.93z"/>
	<g>
		<rect x="84.283" y="134.428" fill="#8E82A3" width="8.197" height="1.95"/>
	</g>
	<g>
		<rect x="84.283" y="130.527" fill="#8E82A3" width="8.197" height="1.95"/>
	</g>
	<g>
		<rect x="84.283" y="126.627" fill="#8E82A3" width="8.197" height="1.95"/>
	</g>
	<g>
		<polygon fill="#40384C" points="71.057,128.136 59.26,116.339 50.85,116.339 50.85,114.339 60.088,114.339 72.471,126.722 		"/>
	</g>
	<g>
		<polygon fill="#40384C" points="72.471,128.136 71.057,126.722 83.439,114.339 92.48,114.339 92.48,116.339 84.268,116.339 		"/>
	</g>
	<g>
		<polygon fill="#40384C" points="60.088,140.339 50.85,140.339 50.85,138.339 59.26,138.339 71.057,126.542 72.471,127.956 		"/>
	</g>
	<g>
		<polygon fill="#40384C" points="92.48,140.339 83.439,140.339 71.057,127.956 72.471,126.542 84.268,138.339 92.48,138.339 		"/>
	</g>
	<path fill="#00FF9C" stroke="#40384C" stroke-width="2" stroke-linejoin="round" stroke-miterlimit="10" d="M71.764,116.542
		c-5.363,0-9.713,4.349-9.713,9.714c0,5.363,4.35,9.713,9.713,9.713c5.365,0,9.713-4.35,9.713-9.713
		C81.477,120.891,77.129,116.542,71.764,116.542z"/>
	<g>
		<path fill="#00FF9C" d="M71.764,130.807c-2.51,0-4.551-2.042-4.551-4.553s2.041-4.553,4.551-4.553s4.551,2.042,4.551,4.553
			S74.273,130.807,71.764,130.807z"/>
		<path fill="#5B506B" d="M71.764,122.701c1.961,0,3.551,1.59,3.551,3.553c0,1.96-1.59,3.553-3.551,3.553s-3.551-1.593-3.551-3.553
			C68.213,124.291,69.803,122.701,71.764,122.701 M71.764,120.701c-3.061,0-5.551,2.491-5.551,5.553s2.49,5.553,5.551,5.553
			s5.551-2.491,5.551-5.553S74.824,120.701,71.764,120.701L71.764,120.701z"/>
	</g>
</g>
</svg>
