<?xml version="1.0" encoding="utf-8"?>
<!-- Generator: Adobe Illustrator 16.0.0, SVG Export Plug-In . SVG Version: 6.00 Build 0)  -->
<!DOCTYPE svg PUBLIC "-//W3C//DTD SVG 1.1//EN" "http://www.w3.org/Graphics/SVG/1.1/DTD/svg11.dtd">
<svg version="1.1" id="Layer_1" xmlns="http://www.w3.org/2000/svg" xmlns:xlink="http://www.w3.org/1999/xlink" x="0px" y="0px"
	 width="193.609px" height="193.609px" viewBox="0 0 193.609 193.609" enable-background="new 0 0 193.609 193.609"
	 xml:space="preserve">
<rect fill="none" width="193.609" height="193.609"/>
<g>
	<circle fill="#5B506B" cx="96.804" cy="96.903" r="78.815"/>
	<path fill="#40384C" d="M83.988,61.808L54.174,91.623h3.599c1.969,0,3.891-0.609,5.501-1.743l6.468-4.558l-5.431,14.01l3.385-1.519
		c2.015-0.904,3.653-2.478,4.638-4.454l2.438-4.893v17.28l2.217-2.743c1.321-1.636,2.202-3.583,2.557-5.656l2.627-15.358
		L83.988,61.808z"/>
	<polygon fill="#5B506B" points="134.461,5.115 142.033,49.281 134.461,49.281 130.742,9.131 	"/>
	<path fill="#2E2837" d="M134.461,5.115v52.154c0,2.26-0.802,4.447-2.262,6.172l-30.581,36.116v-6.738
		c0-2.442,0.48-4.861,1.413-7.118l6.66-16.107L82.81,74.904l8.012,14.16c0.815,1.441,1.244,3.07,1.244,4.726v5.766l-17.46-22.808
		c-1.38-1.802-1.212-4.347,0.393-5.951l36.344-36.343l-3.533-29.339H134.461z"/>
	<g>
		<g>
			<path fill="#8E82A3" d="M97.273,128.535h-0.861v-1.423c0-0.699,0.443-1.332,1.1-1.57l0.498-0.183
				c0.018-0.006,0.035-0.012,0.049-0.019c-0.014-0.006-0.031-0.012-0.049-0.02l-2.627-0.953c-0.666-0.242-0.764-0.622-0.764-0.829
				c0-0.204,0.1-0.585,0.764-0.825l2.629-0.953c0.016-0.008,0.031-0.012,0.045-0.02c-0.014-0.006-0.029-0.012-0.045-0.018
				l-2.629-0.953c-0.664-0.241-0.764-0.621-0.764-0.826s0.1-0.586,0.764-0.826l2.629-0.953c0.016-0.006,0.029-0.012,0.045-0.018
				c-0.016-0.006-0.029-0.012-0.047-0.018l-2.627-0.951c-0.664-0.243-0.764-0.622-0.764-0.826c0-0.205,0.1-0.586,0.764-0.826
				l2.629-0.952c0.016-0.006,0.029-0.012,0.043-0.018c-0.014-0.005-0.027-0.011-0.045-0.017l-2.627-0.952
				c-0.664-0.241-0.764-0.621-0.764-0.827c0-0.204,0.1-0.586,0.764-0.825l2.627-0.952c0.018-0.005,0.031-0.012,0.045-0.017
				c-0.014-0.005-0.027-0.013-0.045-0.018l-2.627-0.952c-0.664-0.24-0.764-0.621-0.764-0.826c0-0.204,0.1-0.584,0.764-0.828
				l2.627-0.951c0.018-0.004,0.031-0.012,0.045-0.018c-0.014-0.004-0.027-0.012-0.045-0.016l-2.627-0.951
				c-0.664-0.24-0.764-0.621-0.764-0.826c0-0.207,0.1-0.585,0.764-0.828l2.627-0.949c0.018-0.006,0.031-0.013,0.045-0.019
				c-0.014-0.007-0.027-0.011-0.045-0.017l-2.627-0.951c-0.664-0.238-0.764-0.621-0.764-0.826s0.1-0.586,0.764-0.826l0.494-0.181
				c0.32-0.116,0.535-0.421,0.535-0.761v-10.33h0.861v10.33c0,0.703-0.443,1.332-1.102,1.572l-0.496,0.179
				c-0.016,0.004-0.031,0.011-0.045,0.017c0.014,0.007,0.029,0.014,0.045,0.019l2.627,0.949c0.666,0.241,0.766,0.622,0.766,0.826
				c0,0.205-0.1,0.585-0.766,0.826l-2.627,0.952c-0.016,0.006-0.031,0.012-0.045,0.018c0.014,0.006,0.029,0.011,0.045,0.017
				l2.627,0.95c0.666,0.242,0.766,0.621,0.766,0.826c0,0.207-0.1,0.588-0.766,0.828l-2.627,0.949
				c-0.016,0.01-0.031,0.014-0.047,0.02c0.016,0.006,0.031,0.014,0.047,0.02l2.627,0.949c0.666,0.242,0.766,0.621,0.766,0.827
				s-0.1,0.585-0.766,0.825l-2.627,0.951c-0.016,0.007-0.031,0.014-0.045,0.018c0.014,0.008,0.029,0.014,0.045,0.018l2.627,0.951
				c0.666,0.242,0.766,0.623,0.766,0.827c0,0.206-0.1,0.587-0.766,0.827l-2.627,0.949c-0.016,0.006-0.031,0.014-0.045,0.02
				c0.014,0.004,0.029,0.01,0.045,0.016l2.627,0.953c0.666,0.239,0.766,0.621,0.766,0.826c0,0.203-0.1,0.586-0.766,0.824
				l-2.627,0.955c-0.016,0.006-0.031,0.012-0.045,0.018c0.014,0.006,0.029,0.01,0.045,0.016l2.627,0.955
				c0.666,0.24,0.766,0.62,0.766,0.826c0,0.205-0.1,0.586-0.764,0.827l-2.629,0.953c-0.018,0.008-0.033,0.012-0.049,0.018
				c0.016,0.008,0.031,0.015,0.049,0.021l2.627,0.953c0.666,0.242,0.766,0.625,0.766,0.828c0,0.205-0.1,0.588-0.764,0.827
				l-0.498,0.184c-0.318,0.116-0.533,0.421-0.533,0.761V128.535z"/>
		</g>
		<rect x="94.146" y="127.006" fill="#8E82A3" width="5.393" height="8.034"/>
		<rect x="91.346" y="102.012" fill="#F8F5FD" width="1.041" height="33.028"/>
		<rect x="101.299" y="102.012" fill="#F8F5FD" width="1.041" height="33.028"/>
		<rect x="90.303" y="136.801" fill="#F8F5FD" width="13.074" height="8.254"/>
		<path fill="#F8F5FD" d="M89.266,146.814v9.334c0,1.722,1.396,3.118,3.118,3.118h8.918c1.722,0,3.118-1.396,3.118-3.118v-9.334
			H89.266z"/>
		<circle fill="#FF466A" cx="96.844" cy="153.043" r="1.654"/>
		<path fill="#8E82A3" d="M100.381,162.087c0.58,0,1.051-0.474,1.051-1.052H99.33C99.33,161.614,99.799,162.087,100.381,162.087z"/>
		<path fill="#8E82A3" d="M93.229,162.087c0.58,0,1.051-0.474,1.051-1.052h-2.102C92.178,161.614,92.646,162.087,93.229,162.087z"/>
	</g>
</g>
</svg>
