<?xml version="1.0" encoding="utf-8"?>
<!-- Generator: Adobe Illustrator 16.0.0, SVG Export Plug-In . SVG Version: 6.00 Build 0)  -->
<!DOCTYPE svg PUBLIC "-//W3C//DTD SVG 1.1//EN" "http://www.w3.org/Graphics/SVG/1.1/DTD/svg11.dtd">
<svg version="1.1" id="Layer_1" xmlns="http://www.w3.org/2000/svg" xmlns:xlink="http://www.w3.org/1999/xlink" x="0px" y="0px"
	 width="460.181px" height="62.91px" viewBox="0 0 460.181 62.91" enable-background="new 0 0 460.181 62.91" xml:space="preserve">
<g>
	<g>
		<circle fill="#362E43" cx="230.04" cy="31.397" r="6.208"/>
	</g>
	<g>
		<g>
			<path fill="#362E43" d="M174.165,31.404c0,3.428,2.779,6.207,6.207,6.207c3.43,0,6.211-2.779,6.211-6.207
				c0-3.432-2.781-6.209-6.211-6.209C176.944,25.195,174.165,27.973,174.165,31.404z"/>
			<path fill="#362E43" d="M180.374,0.361c-17.143,0-31.041,13.896-31.041,31.043c0,17.145,13.898,31.043,31.041,31.043
				c17.145,0,31.041-13.898,31.041-31.043C211.415,14.258,197.519,0.361,180.374,0.361z M180.376,50.029
				c-10.287,0-18.625-8.34-18.625-18.625s8.338-18.625,18.625-18.625c10.284,0,18.623,8.34,18.623,18.625
				S190.66,50.029,180.376,50.029z"/>
		</g>
		<g>
			<polygon fill="#362E43" points="136.915,12.779 136.915,0.361 74.833,0.355 74.833,62.441 136.915,62.447 136.915,50.029 
				87.249,50.029 87.249,12.779 			"/>
			<path fill="#362E43" d="M105.874,37.605c3.43,0,6.209-2.777,6.209-6.209c0-3.428-2.779-6.207-6.209-6.207
				c-3.428,0-6.209,2.779-6.209,6.207C99.665,34.828,102.446,37.605,105.874,37.605z"/>
		</g>
		<g>
			<path fill="#362E43" d="M50.019,6.584c0,3.426,2.777,6.209,6.208,6.209c3.429,0,6.209-2.783,6.209-6.209
				c0-3.432-2.78-6.207-6.209-6.207C52.796,0.377,50.019,3.152,50.019,6.584z"/>
			<circle fill="#362E43" cx="6.562" cy="56.195" r="6.209"/>
			<polygon fill="#362E43" points="50.019,25.188 50.022,41.25 9.147,0.377 0.353,0.377 0.353,37.617 12.77,37.617 12.766,21.555 
				53.652,62.404 62.435,62.404 62.435,25.188 			"/>
		</g>
	</g>
	<g>
		<g>
			<circle fill="#362E43" cx="279.729" cy="31.41" r="6.209"/>
			<path fill="#362E43" d="M279.729,0.369c-17.143,0-31.041,13.898-31.041,31.041c0,17.146,13.898,31.045,31.041,31.045
				c17.145,0,31.043-13.898,31.043-31.045C310.772,14.268,296.874,0.369,279.729,0.369z M279.731,50.035
				c-10.286,0-18.625-8.338-18.625-18.625c0-10.285,8.339-18.621,18.625-18.621c10.285,0,18.623,8.336,18.623,18.621
				C298.354,41.697,290.017,50.035,279.731,50.035z"/>
		</g>
		<g>
			<path fill="#362E43" d="M372.833,6.564c0,3.426,2.777,6.207,6.209,6.207c3.429,0,6.209-2.781,6.209-6.207
				c0-3.432-2.78-6.209-6.209-6.209C375.61,0.355,372.833,3.133,372.833,6.564z"/>
			<circle fill="#362E43" cx="329.376" cy="56.175" r="6.21"/>
			<polygon fill="#362E43" points="372.833,25.168 372.837,41.229 331.962,0.355 323.167,0.355 323.167,37.596 335.585,37.596 
				335.581,21.533 376.466,62.385 385.249,62.385 385.249,25.168 			"/>
		</g>
		<g>
			<polygon fill="#362E43" points="459.751,12.779 459.751,0.361 397.667,0.355 397.667,62.441 459.751,62.447 459.751,50.029 
				410.083,50.029 410.083,12.779 			"/>
			<path fill="#362E43" d="M428.708,37.605c3.43,0,6.211-2.777,6.211-6.209c0-3.428-2.781-6.207-6.211-6.207
				c-3.428,0-6.207,2.779-6.207,6.207C422.501,34.828,425.28,37.605,428.708,37.605z"/>
		</g>
	</g>
</g>
</svg>
