<?xml version="1.0" encoding="utf-8"?>
<!-- Generator: Adobe Illustrator 16.0.0, SVG Export Plug-In . SVG Version: 6.00 Build 0)  -->
<!DOCTYPE svg PUBLIC "-//W3C//DTD SVG 1.1//EN" "http://www.w3.org/Graphics/SVG/1.1/DTD/svg11.dtd">
<svg version="1.1" id="Layer_1" xmlns="http://www.w3.org/2000/svg" xmlns:xlink="http://www.w3.org/1999/xlink" x="0px" y="0px"
	 width="140.149px" height="190.457px" viewBox="0 0 140.149 190.457" enable-background="new 0 0 140.149 190.457"
	 xml:space="preserve">
<g>
	<g>
		<path fill="#00FF9C" d="M32.376,0.786c-17.391,0-31.488,14.098-31.488,31.489v125.957c0,17.391,14.098,31.49,31.488,31.49
			c17.392,0,31.491-14.1,31.491-31.49V32.274C63.867,14.883,49.768,0.786,32.376,0.786z M13.484,32.274
			c0-10.434,8.458-18.893,18.892-18.893c10.435,0,18.894,8.459,18.894,18.893h0.002v35.18l-37.788,37.787L13.484,32.274
			L13.484,32.274z M51.27,158.231c0,10.436-8.459,18.893-18.894,18.893c-10.434,0-18.892-8.457-18.892-18.893h-0.001v-35.178
			l37.788-37.787v72.965H51.27z"/>
	</g>
	<path fill="#00FF9C" d="M139.439,40.681v-8.404c0-17.39-14.098-31.49-31.488-31.49c-17.392,0-31.489,14.098-31.489,31.488h12.597
		c0-10.434,8.458-18.892,18.893-18.892v0.002c10.434,0,18.893,8.457,18.893,18.892h0.001v8.404c0,10.434-8.459,18.893-18.893,18.893
		v12.596v0.002c10.434,0,18.893,8.459,18.893,18.893v67.17h-0.001c0,10.434-8.459,18.893-18.893,18.893l0,0
		c-10.435,0-18.893-8.459-18.893-18.893H76.462c0,17.391,14.098,31.488,31.489,31.488c17.391,0,31.488-14.098,31.488-31.488v-67.17
		c0-10.301-4.948-19.447-12.596-25.191C134.491,60.128,139.439,50.981,139.439,40.681z"/>
</g>
</svg>
