<?xml version="1.0" encoding="utf-8"?>
<!-- Generator: Adobe Illustrator 16.0.0, SVG Export Plug-In . SVG Version: 6.00 Build 0)  -->
<!DOCTYPE svg PUBLIC "-//W3C//DTD SVG 1.1//EN" "http://www.w3.org/Graphics/SVG/1.1/DTD/svg11.dtd">
<svg version="1.1" id="Layer_1" xmlns="http://www.w3.org/2000/svg" xmlns:xlink="http://www.w3.org/1999/xlink" x="0px" y="0px"
	 width="140.149px" height="190.457px" viewBox="0 0 140.149 190.457" enable-background="new 0 0 140.149 190.457"
	 xml:space="preserve">
<g>
	<g>
		<path fill="#00FF9C" d="M32.375,0.786c-17.391,0-31.488,14.098-31.488,31.488v125.959c0,17.391,14.098,31.488,31.488,31.488
			s31.49-14.098,31.49-31.488V32.273C63.865,14.883,49.766,0.786,32.375,0.786z M13.482,32.273c0-10.434,8.459-18.892,18.893-18.892
			s18.893,8.458,18.893,18.892h0.002v35.18L13.482,105.24V32.273L13.482,32.273z M51.268,158.232
			c0,10.434-8.459,18.893-18.893,18.893s-18.893-8.459-18.893-18.893l0,0v-35.18L51.27,85.266v72.967H51.268z"/>
	</g>
	<path fill="#00FF9C" d="M139.439,91.062c0-17.391-14.098-31.488-31.488-31.488c-7.09,0-13.631,2.344-18.895,6.297v-52.49h50.383
		V0.786H76.461v90.277h12.596h0.002c0-10.434,8.457-18.893,18.893-18.893c10.434,0,18.893,8.459,18.893,18.893l-0.002,67.17
		c0,10.434-8.457,18.893-18.893,18.893c-10.434,0-18.893-8.459-18.893-18.893H76.461c0,17.391,14.098,31.488,31.488,31.488
		s31.49-14.096,31.49-31.486l0,0V91.062L139.439,91.062z"/>
</g>
</svg>
