<?xml version="1.0" encoding="utf-8"?>
<!-- Generator: Adobe Illustrator 16.0.0, SVG Export Plug-In . SVG Version: 6.00 Build 0)  -->
<!DOCTYPE svg PUBLIC "-//W3C//DTD SVG 1.1//EN" "http://www.w3.org/Graphics/SVG/1.1/DTD/svg11.dtd">
<svg version="1.1" id="Layer_1" xmlns="http://www.w3.org/2000/svg" xmlns:xlink="http://www.w3.org/1999/xlink" x="0px" y="0px"
	 width="140.149px" height="190.457px" viewBox="0 0 140.149 190.457" enable-background="new 0 0 140.149 190.457"
	 xml:space="preserve">
<g>
	<g>
		<path fill="#00FF9C" d="M32.378,0.786c-17.393,0-31.49,14.098-31.49,31.488v125.959c0,17.391,14.098,31.488,31.49,31.488
			c17.391,0,31.488-14.098,31.488-31.488V32.273C63.866,14.883,49.769,0.786,32.378,0.786z M13.483,32.273
			c0-10.434,8.459-18.892,18.895-18.892c10.434,0,18.893,8.458,18.893,18.892l0,0v35.18L13.483,105.24V32.273L13.483,32.273z
			 M51.271,158.232c0,10.434-8.459,18.893-18.893,18.893c-10.436,0-18.895-8.459-18.895-18.893l0,0v-35.18l37.787-37.787V158.232
			L51.271,158.232z"/>
	</g>
	<polygon fill="#00FF9C" points="139.44,139.338 126.845,139.338 126.845,95.254 114.249,95.254 114.249,139.338 89.058,139.338 
		89.058,0.786 76.462,0.786 76.462,151.934 114.249,151.934 114.249,189.721 126.845,189.721 126.845,151.934 139.44,151.934 	"/>
</g>
</svg>
