<?xml version="1.0" encoding="utf-8"?>
<!-- Generator: Adobe Illustrator 16.0.0, SVG Export Plug-In . SVG Version: 6.00 Build 0)  -->
<!DOCTYPE svg PUBLIC "-//W3C//DTD SVG 1.1//EN" "http://www.w3.org/Graphics/SVG/1.1/DTD/svg11.dtd">
<svg version="1.1" id="Layer_1" xmlns="http://www.w3.org/2000/svg" xmlns:xlink="http://www.w3.org/1999/xlink" x="0px" y="0px"
	 width="140.149px" height="190.457px" viewBox="0 0 140.149 190.457" enable-background="new 0 0 140.149 190.457"
	 xml:space="preserve">
<g>
	<path fill="#00FF9C" d="M139.475,72.673V32.276c0-17.391-14.098-31.489-31.488-31.489c-17.393,0-31.49,14.098-31.49,31.489h12.598
		c0-10.434,8.457-18.893,18.893-18.893c10.434,0,18.893,8.459,18.893,18.893l0,0v35.178l-50.418,50.418l0.035,71.852h62.979v-12.596
		H89.092v-54.074L139.475,72.673z"/>
	<g>
		<path fill="#00FF9C" d="M32.377,0.786c-17.393,0-31.49,14.098-31.49,31.489v125.959c0,17.391,14.098,31.488,31.49,31.488
			c17.391,0,31.488-14.098,31.488-31.488V32.274C63.866,14.883,49.768,0.786,32.377,0.786z M13.483,32.274
			c0-10.434,8.459-18.893,18.895-18.893c10.434,0,18.893,8.459,18.893,18.893l0,0v35.18l-37.787,37.787V32.274L13.483,32.274z
			 M51.27,158.233c0,10.434-8.459,18.893-18.893,18.893c-10.436,0-18.895-8.459-18.895-18.893l0,0v-35.18L51.27,85.267V158.233
			L51.27,158.233z"/>
	</g>
</g>
</svg>
