<?xml version="1.0" encoding="utf-8"?>
<!-- Generator: Adobe Illustrator 16.0.0, SVG Export Plug-In . SVG Version: 6.00 Build 0)  -->
<!DOCTYPE svg PUBLIC "-//W3C//DTD SVG 1.1//EN" "http://www.w3.org/Graphics/SVG/1.1/DTD/svg11.dtd">
<svg version="1.1" id="Layer_1" xmlns="http://www.w3.org/2000/svg" xmlns:xlink="http://www.w3.org/1999/xlink" x="0px" y="0px"
	 width="140.149px" height="190.457px" viewBox="0 0 140.149 190.457" enable-background="new 0 0 140.149 190.457"
	 xml:space="preserve">
<g>
	<g>
		<g>
			<path fill="#00FF9C" d="M32.377,0.786c-17.392,0-31.489,14.098-31.489,31.488v125.958c0,17.391,14.098,31.489,31.489,31.489
				c17.391,0,31.49-14.099,31.49-31.489V32.274C63.867,14.883,49.768,0.786,32.377,0.786z M13.484,32.274
				c0-10.434,8.459-18.893,18.893-18.893S51.27,21.84,51.27,32.274h0.002v35.18l-37.788,37.787L13.484,32.274L13.484,32.274z
				 M51.27,158.232c0,10.435-8.459,18.893-18.893,18.893s-18.893-8.458-18.893-18.893h-0.001v-35.179l37.788-37.787v72.966H51.27z"
				/>
		</g>
	</g>
	<path fill="#00FF9C" d="M107.951,59.574c-7.089,0-13.629,2.343-18.892,6.296V32.273h-0.001c0-10.434,8.458-18.892,18.893-18.892
		s18.892,8.459,18.892,18.893h12.598c0-17.391-14.099-31.488-31.489-31.488c-17.392,0-31.489,14.098-31.489,31.488v125.958
		c0,17.391,14.098,31.488,31.489,31.488c17.391,0,31.488-14.098,31.489-31.487l0,0V91.062
		C139.44,73.671,125.342,59.574,107.951,59.574z M126.845,158.232h-0.002c0,10.434-8.457,18.893-18.892,18.893
		s-18.893-8.459-18.893-18.893h0.001V91.042c0.011-10.425,8.464-18.873,18.892-18.873c10.435,0,18.892,8.459,18.892,18.893h0.002
		V158.232z"/>
</g>
</svg>
