<?xml version="1.0" encoding="utf-8"?>
<!-- Generator: Adobe Illustrator 16.0.0, SVG Export Plug-In . SVG Version: 6.00 Build 0)  -->
<!DOCTYPE svg PUBLIC "-//W3C//DTD SVG 1.1//EN" "http://www.w3.org/Graphics/SVG/1.1/DTD/svg11.dtd">
<svg version="1.1" id="Layer_1" xmlns="http://www.w3.org/2000/svg" xmlns:xlink="http://www.w3.org/1999/xlink" x="0px" y="0px"
	 width="140.149px" height="190.457px" viewBox="0 0 140.149 190.457" enable-background="new 0 0 140.149 190.457"
	 xml:space="preserve">
<g>
	<polygon fill="#00FF9C" points="114.249,177.126 114.249,0.786 76.462,0.786 76.462,13.381 101.653,13.381 101.653,177.126 
		76.462,177.126 76.462,189.722 139.44,189.722 139.44,177.126 	"/>
	<g>
		<path fill="#00FF9C" d="M32.378,0.786c-17.393,0-31.49,14.098-31.49,31.489v125.957c0,17.391,14.098,31.49,31.49,31.49
			c17.391,0,31.488-14.1,31.488-31.49V32.274C63.866,14.883,49.769,0.786,32.378,0.786z M13.483,32.274
			c0-10.434,8.459-18.893,18.895-18.893c10.434,0,18.893,8.459,18.893,18.893l0,0v35.18l-37.787,37.787V32.274L13.483,32.274z
			 M51.271,158.231c0,10.436-8.459,18.893-18.893,18.893c-10.436,0-18.895-8.457-18.895-18.893l0,0v-35.178l37.787-37.787V158.231
			L51.271,158.231z"/>
	</g>
</g>
</svg>
