<?xml version="1.0" encoding="utf-8"?>
<!-- Generator: Adobe Illustrator 16.0.0, SVG Export Plug-In . SVG Version: 6.00 Build 0)  -->
<!DOCTYPE svg PUBLIC "-//W3C//DTD SVG 1.1//EN" "http://www.w3.org/Graphics/SVG/1.1/DTD/svg11.dtd">
<svg version="1.1" id="Layer_1" xmlns="http://www.w3.org/2000/svg" xmlns:xlink="http://www.w3.org/1999/xlink" x="0px" y="0px"
	 width="471.444px" height="87.134px" viewBox="0 0 471.444 87.134" enable-background="new 0 0 471.444 87.134"
	 xml:space="preserve">
<rect x="311.095" y="66.533" fill="#00FF9C" width="139.779" height="10"/>
<rect x="285.651" y="76.533" fill="#00FF9C" width="25.444" height="10"/>
<circle fill="#00FF9C" cx="465.875" cy="71.532" r="5"/>
<g>
	<path fill="#00FF9C" d="M17.429,51.509L0.444,1.499h8.391l11.437,35.664L32.926,1.499h4.128L49.98,37.163L61.213,1.499h8.392
		l-16.918,50.01h-5.211L35.092,15.643L22.776,51.509H17.429z"/>
	<path fill="#00FF9C" d="M99.313,15.034h7.174v36.476h-7.174v-5.008c-3.316,3.925-7.512,5.888-12.451,5.888
		c-5.211,0-9.61-1.826-13.061-5.549c-3.452-3.723-5.143-8.324-5.143-13.806c0-5.481,1.691-9.948,5.143-13.535
		c3.451-3.586,7.85-5.346,13.061-5.346c4.939,0,9.135,1.962,12.451,5.955V15.034z M96.335,41.967
		c2.233-2.368,3.316-5.278,3.316-8.729c0-3.383-1.083-6.294-3.316-8.662c-2.233-2.369-5.008-3.586-8.459-3.586
		s-6.293,1.218-8.459,3.586c-2.166,2.368-3.248,5.279-3.248,8.73s1.083,6.361,3.248,8.729s5.008,3.519,8.459,3.519
		S94.103,44.336,96.335,41.967z"/>
	<path fill="#00FF9C" d="M138.685,51.509l-13.128-16.58l-3.181,2.91v13.67h-7.444V0.213h7.444v28.896l15.361-14.076h9.812
		l-16.783,15.159l17.527,21.317H138.685z"/>
	<path fill="#00FF9C" d="M183.654,36.147h-28.49c1.083,5.685,5.076,9.542,12.113,9.542c4.128,0,9.136-1.557,12.384-3.926
		l3.113,5.482c-3.722,2.773-9.609,5.074-15.768,5.074c-13.67,0-19.557-9.542-19.557-19.151c0-5.481,1.692-10.016,5.143-13.602
		c3.451-3.587,7.985-5.414,13.467-5.414c5.211,0,9.542,1.624,12.858,4.94c3.316,3.316,5.008,7.782,5.008,13.467
		C183.925,33.576,183.857,34.794,183.654,36.147z M155.164,30.057h21.25c-0.609-5.752-4.873-9.474-10.354-9.474
		C160.442,20.583,156.247,24.372,155.164,30.057z"/>
	<path fill="#00FF9C" d="M207.475,36.554v-21.52h7.444v21.452c0,5.481,3.18,9.001,8.526,9.001c5.414,0,8.527-3.384,8.527-9.001
		V15.034h7.511v21.52c0,9.948-6.022,15.835-16.038,15.835C213.701,52.389,207.475,46.298,207.475,36.554z"/>
	<path fill="#00FF9C" d="M280.44,19.703c3.452,3.722,5.211,8.256,5.211,13.603c0,5.346-1.759,9.812-5.211,13.535
		c-3.451,3.723-7.782,5.549-12.993,5.549c-5.075,0-9.271-1.963-12.451-5.955v20.099h-7.444V15.034h7.444v5.279
		c3.315-4.128,7.512-6.159,12.52-6.159C272.726,14.154,276.989,15.981,280.44,19.703z M274.891,24.576
		c-2.165-2.369-5.008-3.586-8.459-3.586s-6.294,1.218-8.459,3.586c-2.099,2.368-3.181,5.21-3.181,8.662
		c0,3.451,1.082,6.429,3.181,8.797c2.165,2.369,5.008,3.519,8.459,3.519s6.294-1.15,8.459-3.519s3.248-5.346,3.248-8.797
		C278.139,29.786,277.056,26.944,274.891,24.576z"/>
	<path fill="#00FF9C" d="M344.323,1.499h7.715v50.01h-4.602L318.81,17.605v33.904h-7.715V1.499h4.061l29.167,34.175V1.499z"/>
	<path fill="#00FF9C" d="M362.676,51.509V1.499h31.941v7.376h-24.159v13.602h22.399v7.377h-22.399v14.278h24.227v7.376H362.676z"/>
	<path fill="#00FF9C" d="M406.345,44.945c-4.939-4.94-7.376-11.031-7.376-18.204c0-7.241,2.504-13.399,7.579-18.475
		c5.076-5.076,11.166-7.646,18.34-7.646c7.24,0,13.331,2.503,18.406,7.579c5.076,5.076,7.58,11.166,7.58,18.339
		s-2.504,13.264-7.58,18.271c-5.075,5.007-11.233,7.511-18.609,7.511C417.444,52.321,411.286,49.885,406.345,44.945z
		 M437.542,39.531c3.451-3.451,5.211-7.782,5.211-12.925c0-5.211-1.76-9.61-5.211-13.061s-7.646-5.211-12.654-5.211
		c-4.94,0-9.204,1.76-12.655,5.279c-3.451,3.451-5.143,7.782-5.143,12.993c0,5.075,1.691,9.406,5.075,12.857
		c3.451,3.452,7.646,5.211,12.723,5.211C429.896,44.674,434.091,42.982,437.542,39.531z"/>
</g>
</svg>
