<?xml version="1.0" encoding="iso-8859-1"?>
<!-- Generator: Adobe Illustrator 19.0.0, SVG Export Plug-In . SVG Version: 6.00 Build 0)  -->
<svg version="1.1" id="Layer_1" xmlns="http://www.w3.org/2000/svg" xmlns:xlink="http://www.w3.org/1999/xlink" x="0px" y="0px"
	 viewBox="0 0 396.218 396.218" style="enable-background:new 0 0 396.218 396.218;" xml:space="preserve">
<circle style="fill:#E1E6E9;" cx="197.818" cy="197.786" r="194.715"/>
<circle style="fill:#FFFFFF;" cx="67.362" cy="33.972" r="27.798"/>
<path style="fill:#193651;" d="M67.362,68.558c-18.554,0-34.004-15.451-34.004-34.004S48.808,0.614,67.362,0.614
	s34.004,15.451,34.004,34.004C102.012,53.107,86.562,68.558,67.362,68.558z M67.362,12.315c-11.766,0-21.657,9.891-21.657,21.657
	S55.661,56.21,67.362,56.21s21.657-9.891,21.657-21.657S79.774,12.315,67.362,12.315z"/>
<path style="fill:#F16051;" d="M90.246,82.78L90.246,82.78c-6.788,3.103-14.222,4.331-22.238,4.331S52.558,85.236,45.77,82.78l0,0
	l0,0c-21.657,0-38.917,17.325-38.917,38.917v46.352c0,1.228,1.228,2.457,2.457,2.457h117.398c1.228,0,2.457-1.228,2.457-2.457
	v-46.352C129.228,100.105,111.903,82.78,90.246,82.78z"/>
<path style="fill:#193651;" d="M126.707,177.358H9.244c-5.56,0-9.244-4.331-9.244-9.244v-46.352
	c0-24.76,20.428-45.123,45.123-45.123h1.228l1.228,0.646c12.994,5.56,27.216,5.56,40.21,0l1.228-0.646h1.228
	c25.341,0,45.123,20.428,45.123,45.123v46.352C135.37,173.091,131.685,177.358,126.707,177.358z M12.347,165.01h110.675v-43.248
	c0-17.907-14.222-32.129-31.547-32.776c-14.804,6.206-32.129,6.206-46.998,0c-17.907,0.646-32.129,14.804-32.129,32.776
	C12.347,121.762,12.347,165.01,12.347,165.01z"/>
<circle style="fill:#FFFFFF;" cx="327.628" cy="85.883" r="27.798"/>
<path style="fill:#193651;" d="M327.628,120.533c-18.554,0-34.004-15.451-34.004-34.004s15.451-34.651,34.004-34.651
	c18.554,0,34.004,15.451,34.004,34.004S346.828,120.533,327.628,120.533z M327.628,64.226c-11.766,0-21.657,9.891-21.657,21.657
	s9.891,21.657,21.657,21.657c11.766,0,21.657-9.891,21.657-21.657S339.976,64.226,327.628,64.226z"/>
<path style="fill:#FDBF5E;" d="M350.513,134.756L350.513,134.756c-6.788,3.103-14.222,4.331-22.238,4.331
	c-8.016,0-15.451-1.875-22.238-4.331l0,0l0,0c-21.657,0-38.917,17.325-38.917,38.917v46.352c0,1.228,1.228,2.457,2.457,2.457
	h117.463c1.228,0,2.457-1.228,2.457-2.457v-46.352C389.43,152.016,372.17,134.756,350.513,134.756z"/>
<path style="fill:#193651;" d="M386.974,229.333H269.511c-4.913,0-8.663-3.685-8.663-8.663v-46.352
	c0-24.76,20.428-45.123,45.123-45.123h1.228l1.228,0.646c12.994,5.56,27.216,5.56,40.21,0l1.228-0.646h1.228
	c25.341,0,45.123,20.428,45.123,45.123v46.352C395.636,225.002,391.952,229.333,386.974,229.333z M272.614,216.921h110.675v-43.248
	c0-17.907-14.222-32.129-32.129-32.776c-14.869,6.206-32.129,6.206-46.998,0c-17.907,0.646-32.129,14.804-32.129,32.776v43.248
	H272.614z"/>
<circle style="fill:#FFFFFF;" cx="173.123" cy="252.8" r="27.798"/>
<path style="fill:#193651;" d="M173.123,286.804c-18.554,0-34.004-15.451-34.004-34.004s15.451-34.004,34.004-34.004
	s34.004,15.451,34.004,34.004C207.709,271.354,192.259,286.804,173.123,286.804z M173.123,230.562
	c-11.766,0-21.657,9.891-21.657,21.657c0,11.766,9.891,21.657,21.657,21.657s21.657-9.891,21.657-21.657
	C194.78,240.453,185.471,230.562,173.123,230.562z"/>
<path style="fill:#4FBF9F;" d="M195.943,301.026L195.943,301.026c-6.788,3.103-14.222,4.331-22.238,4.331
	s-15.451-1.875-22.238-4.331l0,0l0,0c-21.657,0-38.917,17.325-38.917,38.917v46.352c0,1.228,1.228,2.457,2.457,2.457h117.463
	c1.228,0,2.457-1.228,2.457-2.457v-46.352C234.925,318.352,216.954,301.026,195.943,301.026z"/>
<g>
	<path style="fill:#193651;" d="M232.404,395.604H115.006c-4.913,0-8.663-3.685-8.663-8.663v-46.998
		c0-24.76,20.428-45.123,45.123-45.123h1.228l1.228,0.646c12.994,5.56,27.216,5.56,40.21,0l1.228-0.646h1.228
		c25.341,0,45.123,20.428,45.123,45.123v46.352C241.067,391.919,236.735,395.604,232.404,395.604z M118.044,383.257h110.675v-43.249
		c0-17.907-14.222-32.129-32.129-32.776c-14.869,6.206-32.129,6.206-46.998,0c-17.907,0.646-32.129,14.869-32.129,32.776v43.249
		H118.044z"/>
	<path style="fill:#193651;" d="M299.184,325.721c19.135-20.428,32.129-45.77,37.107-72.921l-12.347-2.457
		c-4.913,25.988-17.325,50.101-35.879,68.59l-1.875-22.238l-12.347,1.228l4.913,42.02l42.02-4.913l-1.228-12.347L299.184,325.721z"
		/>
	<path style="fill:#193651;" d="M242.941,37.075l-9.891,7.434l12.347,16.097c-27.216-6.206-55.661-4.978-81.584,4.331l4.331,11.766
		c24.76-8.663,51.911-9.891,77.253-3.103l-17.907,13.576l7.434,9.891l34.004-25.341L242.941,37.075z"/>
	<path style="fill:#193651;" d="M53.786,234.246l20.428,8.663l4.978-11.119l-38.917-16.679l-16.808,38.917l11.119,4.913
		l8.081-18.489c8.016,26.57,23.467,50.683,44.477,68.59l8.016-9.244C75.442,282.473,61.22,259.588,53.786,234.246z"/>
	<rect x="147.717" y="339.362" style="fill:#193651;" width="12.347" height="12.347"/>
	<rect x="186.699" y="339.362" style="fill:#193651;" width="12.347" height="12.347"/>
	<rect x="302.287" y="172.444" style="fill:#193651;" width="12.347" height="12.347"/>
	<rect x="341.269" y="172.444" style="fill:#193651;" width="12.347" height="12.347"/>
	<rect x="42.02" y="120.533" style="fill:#193651;" width="12.347" height="12.347"/>
	<rect x="81.002" y="120.533" style="fill:#193651;" width="12.347" height="12.347"/>
</g>
<g>
</g>
<g>
</g>
<g>
</g>
<g>
</g>
<g>
</g>
<g>
</g>
<g>
</g>
<g>
</g>
<g>
</g>
<g>
</g>
<g>
</g>
<g>
</g>
<g>
</g>
<g>
</g>
<g>
</g>
</svg>
