<?xml version="1.0" encoding="iso-8859-1"?>
<!-- Generator: Adobe Illustrator 19.0.0, SVG Export Plug-In . SVG Version: 6.00 Build 0)  -->
<svg version="1.1" id="Layer_1" xmlns="http://www.w3.org/2000/svg" xmlns:xlink="http://www.w3.org/1999/xlink" x="0px" y="0px"
	 viewBox="0 0 395.636 395.636" style="enable-background:new 0 0 395.636 395.636;" xml:space="preserve">
<g>
	<polygon style="fill:#FFFFFF;" points="380.768,333.188 356.073,389.43 331.313,333.188 	"/>
	<rect x="331.378" y="179.782" style="fill:#FFFFFF;" width="48.808" height="153.406"/>
</g>
<path style="fill:#193651;" d="M316.509,0v34.586h-27.216v152.695h12.347V46.998h14.804v140.347h8.727v146.489
	c0,0.323,0,0.646,0.065,0.905c0.065,0.259,0.259,0.646,0.517,0.905l24.76,56.242c1.228,2.457,3.103,3.685,5.56,3.685
	c2.457,0,4.978-1.228,5.56-3.685l24.76-56.242c0-0.323,0.129-0.646,0.323-0.905c0.129-0.323,0.323-0.646,0.323-0.905V187.281h8.598
	V0H316.509z M356.073,373.98l-14.869-34.65h29.673L356.073,373.98z M374.626,327.046h-36.461V187.281h36.461V327.046z"/>
<rect x="329.438" y="12.929" style="fill:#4FBF9F;" width="53.269" height="161.422"/>
<polygon style="fill:#FFFFFF;" points="90.893,6.206 6.206,90.893 6.206,389.43 268.283,389.43 268.283,6.206 "/>
<rect x="56.889" y="137.244" style="fill:#FDBF5E;" width="161.358" height="73.568"/>
<rect x="87.143" y="168.145" style="fill:#193651;" width="100.137" height="12.347"/>
<path style="fill:#D3D7DA;" d="M90.893,90.893V7.434c0-0.646-0.646-0.646-1.228-0.646L7.434,89.665
	c-0.646,0.646,0,1.228,0.646,1.228L90.893,90.893L90.893,90.893z"/>
<g>
	<path style="fill:#193651;" d="M88.372,0L0,88.372v307.265h274.489V0H88.372z M84.687,21.01v63.677H21.01L84.687,21.01z
		 M262.141,383.289H12.347V97.034h84.687V12.347h165.042L262.141,383.289L262.141,383.289z"/>
	<rect x="49.455" y="254.707" style="fill:#193651;" width="174.933" height="12.347"/>
	<rect x="49.455" y="290.521" style="fill:#193651;" width="174.933" height="12.347"/>
	<rect x="49.455" y="327.046" style="fill:#193651;" width="174.933" height="12.347"/>
	<rect x="143.451" y="48.808" style="fill:#193651;" width="12.347" height="12.347"/>
	<rect x="176.162" y="48.808" style="fill:#193651;" width="12.347" height="12.347"/>
	<rect x="208.356" y="48.808" style="fill:#193651;" width="12.347" height="12.347"/>
</g>
<g>
</g>
<g>
</g>
<g>
</g>
<g>
</g>
<g>
</g>
<g>
</g>
<g>
</g>
<g>
</g>
<g>
</g>
<g>
</g>
<g>
</g>
<g>
</g>
<g>
</g>
<g>
</g>
<g>
</g>
</svg>
