<?xml version="1.0" encoding="iso-8859-1"?>
<!-- Generator: Adobe Illustrator 19.0.0, SVG Export Plug-In . SVG Version: 6.00 Build 0)  -->
<svg version="1.1" id="Layer_1" xmlns="http://www.w3.org/2000/svg" xmlns:xlink="http://www.w3.org/1999/xlink" x="0px" y="0px"
	 viewBox="0 0 403.071 403.071" style="enable-background:new 0 0 403.071 403.071;" xml:space="preserve">
<path style="fill:#FFFFFF;" d="M396.929,6.335c-94.448,0-180.428,36.137-244.752,95.224c-39.564-0.453-79.321,14.352-109.446,44.477
	c-11.766,11.766-21.01,24.76-28.444,38.917c25.018-12.8,52.945-18.166,80.42-16.097c-8.986,13.64-17.067,27.863-24.178,42.667
	l121.147,121.147c14.869-7.111,29.091-15.257,42.731-24.242c2.198,27.604-3.038,55.725-15.58,81.131
	c14.222-6.788,27.216-16.679,38.917-28.444c30.448-30.448,45.317-70.723,44.477-110.739
	C360.986,186.182,396.929,100.461,396.929,6.335z"/>
<path style="fill:#F16051;" d="M288.129,23.014l92.121,92.121c10.537-34.586,16.679-71.111,16.679-108.8
	C359.176,6.335,322.715,12.541,288.129,23.014z"/>
<circle style="fill:#2EA2DB;" cx="275.782" cy="127.548" r="37.689"/>
<path style="fill:#FDBF5E;" d="M87.208,228.913c-24.76,38.335-46.352,133.495-46.352,133.495s95.224-21.657,133.495-46.352
	L87.208,228.913z"/>
<g>
	<path style="fill:#193651;" d="M403.071,0.194h-6.206c-92.121,0-179.911,35.232-246.626,95.224h-0.646
		c-42.02,0-82.23,16.679-111.903,46.352c-11.766,11.766-21.657,25.341-29.026,40.21L0,198.659l16.679-8.663
		c20.428-10.537,43.313-16.097,66.198-16.097c0.646,0,0.646,0,1.228,0c-6.788,11.119-13.576,22.885-19.135,34.586l-1.875,3.685
		l16.679,16.679c-24.695,42.02-43.895,128.582-45.123,132.267l-1.875,9.244l9.244-1.875c3.685-0.646,90.246-20.428,131.038-45.123
		l16.679,16.679l3.685-1.875c11.766-5.56,23.467-12.347,34.586-19.135c0,22.885-4.913,45.77-16.097,67.362l-8.663,16.679
		l16.679-8.663c14.869-7.434,28.444-17.325,40.21-29.026c29.673-29.673,46.352-69.883,46.352-111.903v-0.646
		c59.992-66.78,95.224-154.57,95.224-246.626V0h1.358V0.194z M82.877,162.133c-18.554,0-36.461,3.103-53.786,9.244
		c4.978-7.434,11.119-14.869,17.325-21.01c24.76-24.76,56.242-38.917,90.246-42.02c-16.679,16.679-31.547,34.651-45.123,54.368l0,0
		C89.083,162.133,85.98,162.133,82.877,162.133z M49.519,353.746c5.56-23.467,21.657-82.812,39.564-115.006l75.378,76.089
		C132.331,332.735,72.339,348.186,49.519,353.746z M252.897,356.849c-6.788,6.788-13.576,12.347-21.01,17.325
		c7.434-20.428,10.537-42.02,9.244-63.03c19.782-13.576,37.689-28.444,54.368-45.123
		C292.461,300.606,277.592,332.154,252.897,356.849z M192.905,325.366L77.964,210.36C136.663,91.669,258.457,14.998,390.788,12.541
		C388.267,144.808,311.596,266.602,192.905,325.366z"/>
	
		<rect x="136.813" y="214.786" transform="matrix(0.7071 0.7071 -0.7071 0.7071 198.1223 -36.3894)" style="fill:#193651;" width="12.347" height="12.347"/>
	
		<rect x="156.5" y="234.605" transform="matrix(0.7071 0.7071 -0.7071 0.7071 217.9018 -44.5051)" style="fill:#193651;" width="12.347" height="12.347"/>
	
		<rect x="176.186" y="254.423" transform="matrix(0.7071 0.7071 -0.7071 0.7071 237.6813 -52.6207)" style="fill:#193651;" width="12.347" height="12.347"/>
</g>
<g>
</g>
<g>
</g>
<g>
</g>
<g>
</g>
<g>
</g>
<g>
</g>
<g>
</g>
<g>
</g>
<g>
</g>
<g>
</g>
<g>
</g>
<g>
</g>
<g>
</g>
<g>
</g>
<g>
</g>
</svg>
