<?xml version="1.0" encoding="iso-8859-1"?>
<!-- Generator: Adobe Illustrator 19.0.0, SVG Export Plug-In . SVG Version: 6.00 Build 0)  -->
<svg version="1.1" id="Layer_1" xmlns="http://www.w3.org/2000/svg" xmlns:xlink="http://www.w3.org/1999/xlink" x="0px" y="0px"
	 viewBox="0 0 399.968 399.968" style="enable-background:new 0 0 399.968 399.968;" xml:space="preserve">
<g>
	<circle style="fill:#FFFFFF;" cx="200.232" cy="200.275" r="41.438"/>
	<circle style="fill:#FFFFFF;" cx="122.333" cy="278.174" r="29.026"/>
	<circle style="fill:#FFFFFF;" cx="38.292" cy="362.214" r="18.554"/>
	<circle style="fill:#FFFFFF;" cx="38.292" cy="362.214" r="18.554"/>
	<circle style="fill:#FFFFFF;" cx="122.979" cy="375.855" r="18.554"/>
	<circle style="fill:#FFFFFF;" cx="24.652" cy="277.527" r="18.554"/>
	<circle style="fill:#FFFFFF;" cx="278.13" cy="122.376" r="29.026"/>
	<circle style="fill:#FFFFFF;" cx="362.171" cy="38.335" r="18.554"/>
	<circle style="fill:#FFFFFF;" cx="122.333" cy="122.376" r="29.026"/>
	<circle style="fill:#FFFFFF;" cx="38.292" cy="38.335" r="18.554"/>
	<path style="fill:#FFFFFF;" d="M138.429,14.804c-7.434-11.119-23.467-11.119-30.901,0c-4.331,6.206-4.331,14.222,0,20.428
		c7.434,11.119,23.467,11.119,30.901,0C142.761,29.026,142.761,21.01,138.429,14.804z"/>
	<circle style="fill:#FFFFFF;" cx="278.13" cy="278.174" r="29.026"/>
	<circle style="fill:#FFFFFF;" cx="362.817" cy="362.214" r="18.554"/>
	<circle style="fill:#FFFFFF;" cx="375.811" cy="277.527" r="18.554"/>
</g>
<circle style="fill:#F16051;" cx="200.232" cy="200.275" r="16.679"/>
<g>
	
		<rect x="71.021" y="71.24" transform="matrix(0.7071 -0.7071 0.7071 0.7071 -32.1301 77.2589)" style="fill:#183651;" width="12.347" height="12.347"/>
	
		<rect x="71.344" y="317.048" transform="matrix(0.7071 0.7071 -0.7071 0.7071 251.2567 39.8562)" style="fill:#183651;" width="12.347" height="12.347"/>
	<path style="fill:#183651;" d="M362.171,63.03c13.576,0,24.76-11.119,24.76-24.76c0-14.222-10.537-24.76-24.76-24.76
		c-13.576,0-24.76,11.119-24.76,24.76C337.476,51.911,348.595,63.03,362.171,63.03z M362.171,25.923
		c6.788,0,12.347,5.56,12.347,12.347s-4.978,12.347-12.347,12.347c-6.788,0-12.347-5.56-12.347-12.347
		C349.823,31.483,355.383,25.923,362.171,25.923z"/>
	<path style="fill:#183651;" d="M38.292,63.03c5.43,0,10.473-1.81,14.61-4.784l-1.681,1.681l8.727,8.727l8.727-8.727l-8.727-8.792
		l-1.745,1.745c3.038-4.073,4.784-9.115,4.784-14.61c0-13.576-11.119-24.76-24.76-24.76c-13.576,0-24.76,11.119-24.76,24.76
		C13.533,51.911,24.652,63.03,38.292,63.03z M38.292,25.923c6.788,0,12.347,5.56,12.347,12.347s-5.56,12.347-12.347,12.347
		s-12.347-5.56-12.347-12.347C25.88,31.483,31.44,25.923,38.292,25.923z"/>
	<path style="fill:#183651;" d="M68.547,340.687l-8.727-8.727l-8.727,8.727l2.133,2.133c-4.202-3.362-9.503-5.301-15.515-5.301
		c-13.576,0-24.76,11.119-24.76,24.76c0,13.576,11.119,24.76,24.76,24.76c13.576,0,24.76-11.119,24.76-24.76
		c0-5.883-2.004-11.313-5.366-15.58l2.78,2.78L68.547,340.687z M37.646,374.626c-6.788,0-12.347-5.56-12.347-12.347
		s5.56-12.347,12.347-12.347s12.347,5.56,12.347,12.347C49.993,369.067,45.08,374.626,37.646,374.626z"/>
	<path style="fill:#183651;" d="M360.943,337.519c-13.576,0-24.76,11.119-24.76,24.76c0,13.576,11.119,24.76,24.76,24.76
		c13.64,0,24.76-11.119,24.76-24.76C385.702,348.638,374.583,337.519,360.943,337.519z M360.943,374.626
		c-6.788,0-12.347-5.56-12.347-12.347s5.56-12.347,12.347-12.347s12.347,5.56,12.347,12.347
		C373.355,369.067,367.73,374.626,360.943,374.626z"/>
	<path style="fill:#183651;" d="M375.811,252.832c-11.766,0-21.01,8.016-24.113,18.554h-38.982
		c-3.103-16.097-17.325-28.444-34.586-28.444c-7.434,0-14.222,2.457-19.782,6.206l-20.428-20.428
		c6.206-8.016,9.891-17.907,9.891-29.026s-3.685-21.01-9.891-29.026l20.428-20.428c5.56,3.685,12.348,6.206,19.782,6.206
		c19.135,0,35.232-15.451,35.232-35.232c0-19.135-15.451-35.232-35.232-35.232c-19.135,0-35.232,15.451-35.232,35.232
		c0,7.434,2.457,14.222,6.206,19.782l-20.428,20.364c-8.016-6.206-17.907-9.891-29.026-9.891s-21.01,3.685-29.026,9.891
		l-19.782-19.135c3.685-5.56,6.206-12.347,6.206-19.782c0-17.325-12.347-31.547-29.026-34.651V48.873
		c11.119-2.457,19.135-12.347,19.135-24.113c0-13.576-11.119-24.76-24.76-24.76c-13.576,0-24.76,11.119-24.76,24.76
		c0,11.119,7.434,20.428,17.907,23.467V87.79c-5.107,0.97-9.762,2.909-13.77,5.689l-7.305-7.305l-8.727,8.727l7.24,7.24
		c-4.073,5.689-6.4,12.671-6.4,20.299c0,19.135,15.451,35.232,35.232,35.232c7.434,0,14.222-2.457,19.782-6.206l20.428,20.428
		c-6.206,8.016-9.891,17.907-9.891,29.026c0,11.119,3.685,21.01,9.891,29.026l-19.782,19.782c-5.56-3.685-12.347-6.206-19.782-6.206
		c-17.325,0-31.547,12.347-34.651,28.444l-38.917-0.646c-2.457-10.537-12.347-18.554-24.113-18.554
		c-13.576,0-24.76,11.119-24.76,24.76s11.119,24.76,24.76,24.76c11.119,0,21.01-8.016,23.467-18.554l38.917,0.646
		c0.646,4.913,3.103,9.891,5.56,14.222l-7.434,7.434l8.663,8.663l7.434-7.434c4.331,3.103,8.663,4.978,14.222,5.56l0.646,38.917
		c-10.537,3.103-18.554,12.347-18.554,23.467c0,13.576,11.119,24.76,24.76,24.76c13.576,0,24.76-11.119,24.76-24.76
		c0-11.766-8.016-21.01-18.554-24.113l-0.646-38.917c16.097-3.103,28.444-17.325,28.444-34.586c0-7.434-2.457-14.222-6.206-19.782
		l20.428-20.428c8.016,6.206,17.907,9.891,29.026,9.891c11.119,0,21.01-3.685,29.026-9.891l20.428,20.428
		c-3.685,5.56-6.206,12.348-6.206,19.782c0,19.135,15.451,35.232,35.232,35.232c17.325,0,31.547-12.347,34.586-29.026l38.917-0.646
		c3.103,10.537,12.347,18.554,23.467,18.554c13.576,0,24.76-11.119,24.76-24.76C400.506,263.952,389.387,252.832,375.811,252.832z
		 M278.13,99.491c12.347,0,22.885,9.891,22.885,22.885s-10.537,22.238-22.885,22.238s-22.238-9.891-22.238-22.238
		S265.783,99.491,278.13,99.491z M110.567,24.695c0-6.788,5.56-12.347,12.347-12.347s12.347,5.56,12.347,12.347
		c0,6.788-5.56,12.347-12.347,12.347S110.567,31.483,110.567,24.695z M122.333,145.261c-12.347,0-22.885-9.891-22.885-22.885
		s9.891-22.885,22.885-22.885s22.885,9.891,22.885,22.885S134.68,145.261,122.333,145.261z M24.652,289.939
		c-6.788,0-12.347-5.56-12.347-12.347c0-6.788,5.56-12.347,12.347-12.347s12.347,5.56,12.347,12.347
		C36.999,284.38,31.44,289.939,24.652,289.939z M135.326,375.855c0,6.788-5.56,12.347-12.347,12.347
		c-6.788,0-12.347-5.56-12.347-12.347s5.56-12.347,12.347-12.347C129.767,363.507,135.326,369.067,135.326,375.855z
		 M122.333,301.059c-12.347,0-22.885-9.891-22.885-22.885s9.891-22.885,22.885-22.885c12.347,0,22.885,9.891,22.885,22.885
		C145.217,291.168,134.68,301.059,122.333,301.059z M200.232,235.507c-19.135,0-35.232-15.451-35.232-35.232
		c0-19.135,15.451-35.232,35.232-35.232c19.135,0,35.232,15.451,35.232,35.232C235.464,219.41,219.367,235.507,200.232,235.507z
		 M278.13,301.059c-12.347,0-22.885-9.891-22.885-22.885c0-12.347,9.891-22.885,22.885-22.885c12.994,0,22.885,9.891,22.885,22.885
		C301.015,290.521,290.478,301.059,278.13,301.059z M375.811,289.939c-6.788,0-12.347-5.56-12.347-12.347
		c0-6.788,5.56-12.347,12.347-12.347c6.788,0,12.347,5.56,12.347,12.347C388.159,284.38,382.599,289.939,375.811,289.939z"/>
</g>
<g>
</g>
<g>
</g>
<g>
</g>
<g>
</g>
<g>
</g>
<g>
</g>
<g>
</g>
<g>
</g>
<g>
</g>
<g>
</g>
<g>
</g>
<g>
</g>
<g>
</g>
<g>
</g>
<g>
</g>
</svg>
